<svg viewBox="0 0 532 123" focusable="false" xmlns="http://www.w3.org/2000/svg"><path d="M130 28.8001C130 23.8001 134.2 19.6001 139.2 19.6001C144.2 19.6001 148.4 23.8001 148.4 28.8001C148.4 33.8001 144.2 38.0001 139.2 38.0001C134.2 38.0001 130 33.8001 130 28.8001ZM131.6 42.6001H147V93.9001H131.6V42.6001Z" fill="#A0AEC0"></path><path d="M210.7 72.8C210.7 85.5 200.3 93.8 187.5 93.8H157.3V22H185.4C197.9 22 208.1 30.1 208.1 42.5C208.1 48.5 205.7 53.2 201.8 56.6C207.2 60 210.7 65.5 210.7 72.8ZM173.7 37.4V50.1H185.4C189.1 50.1 191.7 47.4 191.7 43.7C191.7 40 189.2 37.3 185.4 37.3H173.7V37.4ZM194.3 71.6C194.3 67.6 191.6 64.7 187.5 64.7H173.7V78.5H187.5C191.6 78.5 194.3 75.6 194.3 71.6Z" fill="#A0AEC0"></path><path d="M271.3 42.6001V93.9001H255.9V89.0001C252.5 92.9001 247.5 95.3001 240.6 95.3001C227.2 95.3001 216.1 83.5001 216.1 68.2001C216.1 52.9001 227.2 41.1001 240.6 41.1001C247.5 41.1001 252.5 43.5001 255.9 47.4001V42.6001H271.3V42.6001ZM255.9 68.2001C255.9 60.5001 250.8 55.7001 243.7 55.7001C236.6 55.7001 231.5 60.5001 231.5 68.2001C231.5 75.9001 236.6 80.7001 243.7 80.7001C250.7 80.7001 255.9 75.9001 255.9 68.2001Z" fill="#A0AEC0"></path><path d="M330.7 62.4001V93.9001H315.3V64.6001C315.3 58.2001 311.3 55.3001 306.4 55.3001C300.8 55.3001 296.9 58.6001 296.9 65.9001V93.9001H281.5V42.6001H296.9V47.4001C299.7 43.6001 304.8 41.1001 311.6 41.1001C321.9 41.1001 330.7 48.5001 330.7 62.4001Z" fill="#A0AEC0"></path><path d="M356.2 37.8V51.7H382.9V67.5H356.2V93.9H339.8V22H383.4V37.8H356.2Z" fill="#A0AEC0"></path><path d="M389.7 28.8001C389.7 23.8001 393.9 19.6001 398.9 19.6001C403.9 19.6001 408.1 23.8001 408.1 28.8001C408.1 33.8001 403.9 38.0001 398.9 38.0001C393.9 38.0001 389.7 33.8001 389.7 28.8001ZM391.2 42.6001H406.6V93.9001H391.2V42.6001Z" fill="#A0AEC0"></path><path d="M447.8 41.5V59C441.4 58 432.4 60.5 432.4 70.7V93.9H417V42.6H432.4V51.7C434.4 44.8 441.3 41.5 447.8 41.5Z" fill="#A0AEC0"></path><path d="M493.8 78.5002C493.8 90.3002 483.5 95.3002 472.5 95.3002C462.2 95.3002 454.4 91.4002 450.4 83.1002L463.7 75.5002C465 79.4002 467.9 81.6002 472.4 81.6002C476.1 81.6002 477.9 80.5002 477.9 78.4002C477.9 72.8002 452.7 75.7002 452.7 58.0002C452.7 46.8002 462.1 41.2002 472.8 41.2002C481.1 41.2002 488.5 44.9002 492.8 52.2002L479.7 59.3002C478.3 56.6002 476.2 54.8002 472.8 54.8002C470.1 54.8002 468.5 55.8002 468.5 57.7002C468.5 63.4002 493.8 59.5002 493.8 78.5002Z" fill="#A0AEC0"></path><path d="M521 57.3002V75.5002C521 79.9002 524.8 80.3002 531.6 79.9002V93.9002C511.5 96.0002 505.6 89.9002 505.6 75.5002V57.3002H497.4V42.5002H505.6V32.8002L521 28.2002V42.6002H531.6V57.4002H521V57.3002Z" fill="#A0AEC0"></path><path d="M90.5001 61.8003L74.7001 70.9003L57.0001 81.1003L25.1001 99.5003L23.4001 100.5C23.3001 100.5 23.3001 100.6 23.2001 100.6C20.0001 102.4 16.2001 103.5 12.3001 103.5C7.80008 103.5 3.70007 102.2 0.200073 99.9003C0.400073 103.8 1.60008 107.6 3.60008 110.9C5.70008 114.4 8.70008 117.4 12.3001 119.5C15.9001 121.6 20.0001 122.7 24.1001 122.8C24.2001 122.8 24.4001 122.8 24.5001 122.8C28.7001 122.8 32.9001 121.7 36.7001 119.5L62.5001 104.6L69.3001 100.7L100.1 82.9003C100.5 82.7003 100.9 82.4003 101.3 82.1003C101.3 81.7003 101.3 81.2003 101.3 80.8003C101.4 72.7003 97.0001 65.6003 90.5001 61.8003Z" fill="#A0AEC0"></path><path d="M109.3 49.9002C107.2 46.1002 104 42.9002 100.2 40.6002L67.6001 21.8002L36.6001 4.0002C36.1001 3.7002 35.6001 3.4002 35.1001 3.2002C28.0001 6.9002 23.1001 14.3002 23.1001 22.9002L25.0001 24.0002L56.3001 42.1002L74.6001 52.6002L90.0001 61.5002C90.2001 61.6002 90.3001 61.7002 90.5001 61.8002C97.0001 65.7002 101.4 72.8002 101.4 80.9002C101.4 81.3002 101.4 81.8002 101.4 82.2002C104.7 80.0002 107.4 77.1002 109.3 73.7002C111.3 70.1002 112.4 66.0002 112.4 61.9002C112.3 57.6002 111.3 53.5002 109.3 49.9002Z" fill="#A0AEC0"></path><path d="M24.1001 0.700195C20.0001 0.800195 15.9001 1.9002 12.3001 4.0002C8.70009 6.1002 5.7001 9.0002 3.6001 12.6002C1.3001 16.4002 0.100098 20.7002 0.100098 25.1002V62.8002V98.4002C0.100098 98.9002 0.100098 99.4002 0.100098 99.9002C3.6001 102.2 7.70009 103.5 12.2001 103.5C16.2001 103.5 19.9001 102.5 23.1001 100.6V62.0002V22.8002C23.1001 14.2002 27.9001 6.8002 35.1001 3.1002C31.7001 1.5002 27.9001 0.700195 24.1001 0.700195Z" fill="#A0AEC0"></path></svg>