<svg viewBox="0 0 820.2962 205" focusable="false" xmlns="http://www.w3.org/2000/svg"><g clip-path="url(#clip0_39_22)"><path d="M24.57 65.2965L0 0L66.5266 41.0729L24.57 65.2965ZM27.5205 73.1377L28.5267 75.8115L74.9959 205L152.813 0.8L27.5205 73.1377Z" fill="#A0AEC0"></path><path d="M216.602 80.7081H199.794V115.275H180.448V20.1348H216.602C239.436 20.1348 249.584 34.0879 249.584 50.4209C249.584 66.9122 239.436 80.7081 216.602 80.7081V80.7081ZM213.431 33.9301H199.794V66.9122H213.431C225.958 66.9122 230.398 59.459 230.398 50.4209C230.398 41.5411 225.958 33.9301 213.431 33.9301V33.9301Z" fill="#A0AEC0"></path><path d="M262.273 115.275V20.1348H281.618V115.275H262.273Z" fill="#A0AEC0"></path><path d="M369.625 115.275L319.835 52.4825V115.275H302.551V20.1348H316.03L365.82 82.9278V20.1348H383.104V115.275H369.625Z" fill="#A0AEC0"></path><path d="M440.351 80.7081H423.542V115.275H404.198V20.1348H440.351C463.185 20.1348 473.333 34.0879 473.333 50.4209C473.333 66.9122 463.185 80.7081 440.351 80.7081V80.7081ZM437.18 33.9301H423.542V66.9122H437.18C449.706 66.9122 454.147 59.459 454.147 50.4209C454.147 41.5411 449.706 33.9301 437.18 33.9301V33.9301Z" fill="#A0AEC0"></path><path d="M535.654 117.972C506.476 117.972 483.801 96.8817 483.801 67.7051C483.801 38.5285 506.476 17.4385 535.654 17.4385C564.671 17.4385 587.03 38.5285 587.03 67.7051C587.03 96.8817 564.671 117.972 535.654 117.972ZM535.654 32.8204C516.624 32.8204 504.098 47.0904 504.098 67.7051C504.098 88.3198 516.624 102.59 535.654 102.59C554.364 102.59 566.733 88.3201 566.733 67.7053C566.733 47.0905 554.364 32.8201 535.654 32.8201V32.8204Z" fill="#A0AEC0"></path><path d="M603.527 115.275V20.1348H622.872V115.275H603.527Z" fill="#A0AEC0"></path><path d="M710.879 115.275L661.089 52.4825V115.275H643.805V20.1348H657.283L707.073 82.9278V20.1348H724.358V115.275H710.879Z" fill="#A0AEC0"></path><path d="M788.107 35.1983V115.275H768.761V35.1983H736.572V20.1348H820.296V35.1983H788.107Z" fill="#A0AEC0"></path><path d="M228.632 196.609V148.609H238.177V196.609H228.632Z" fill="#A0AEC0"></path><path d="M290.982 196.609L266.416 164.929V196.609H257.889V148.609H264.539L289.103 180.289V148.609H297.631V196.609H290.982Z" fill="#A0AEC0"></path><path d="M338.464 156.209V196.609H328.919V156.209H313.038V148.609H354.345V156.209H338.464Z" fill="#A0AEC0"></path><path d="M369.753 196.609V148.609H400.342V156.209H379.298V167.489H396.431V175.09H379.298V189.01H400.342V196.61L369.753 196.609Z" fill="#A0AEC0"></path><path d="M457.527 196.609H447.043L434.057 177.489H428.19V196.609H418.645V148.609H437.108C448.217 148.609 452.989 155.329 452.989 163.089C452.989 169.57 449.626 174.69 443.601 176.449L457.527 196.609ZM428.19 170.609H435.543C441.489 170.609 443.601 167.409 443.601 163.169C443.601 158.85 441.489 155.569 435.543 155.569H428.19L428.19 170.609Z" fill="#A0AEC0"></path><path d="M506.652 196.609L501.879 184.769H482.868L478.097 196.609H468.865L488.815 148.609H496.246L516.196 196.609H506.652ZM492.413 160.529L485.45 177.969H499.297L492.413 160.529Z" fill="#A0AEC0"></path><path d="M551.24 197.65C537.706 197.65 526.05 188.13 526.05 172.609C526.05 157.088 537.706 147.568 551.24 147.568C557.421 147.568 563.68 149.408 567.591 152.449V161.329C563.407 157.496 557.932 155.382 552.258 155.408C542.948 155.408 536.063 161.808 536.063 172.609C536.063 183.33 542.948 189.809 552.258 189.809C557.932 189.835 563.407 187.721 567.591 183.889V192.769C563.679 195.81 557.42 197.65 551.24 197.65V197.65Z" fill="#A0AEC0"></path><path d="M606.546 156.209V196.609H597.001V156.209H581.12V148.609H622.427V156.209H606.546Z" fill="#A0AEC0"></path><path d="M637.835 196.609V148.609H647.38V196.609H637.835Z" fill="#A0AEC0"></path><path d="M689.701 196.609H682.504L662.555 148.609H672.334L686.337 183.09L700.184 148.61H709.651L689.701 196.609Z" fill="#A0AEC0"></path><path d="M724.901 196.609V148.609H755.49V156.209H734.446V167.489H751.578V175.09H734.446V189.01H755.49V196.61L724.901 196.609Z" fill="#A0AEC0"></path></g><defs><clipPath id="clip0_39_22"><rect width="820.296" height="205" fill="white"></rect></clipPath></defs></svg>