<svg viewBox="0 0 396 103" focusable="false" xmlns="http://www.w3.org/2000/svg"><g clip-path="url(#clip0_39_19)"><path d="M149.105 81.5446V21.457H144.212V81.5382L149.105 81.5446ZM179.924 82.4909C183.372 82.5885 186.798 81.9235 189.959 80.5436C193.12 79.1638 195.936 77.1029 198.208 74.5084L194.861 71.5922C192.977 73.6376 190.676 75.2551 188.114 76.3357C185.552 77.4162 182.788 77.9346 180.008 77.8559C177.866 77.9813 175.722 77.6719 173.703 76.9464C171.684 76.2209 169.833 75.0944 168.261 73.6346C166.689 72.1748 165.429 70.412 164.557 68.4524C163.685 66.4928 163.218 64.3768 163.185 62.2321H200.957C201.508 59.1917 201.357 56.0658 200.515 53.0926C199.674 50.1195 198.166 47.3776 196.104 45.0759C194.042 42.7743 191.483 40.9736 188.62 39.8112C185.756 38.6487 182.666 38.1552 179.583 38.3683C176.698 38.2704 173.825 38.7765 171.148 39.8541C168.47 40.9317 166.047 42.5569 164.035 44.6257C162.022 46.6944 160.464 49.1609 159.461 51.867C158.458 54.573 158.031 57.4589 158.209 60.3395C158.045 63.2539 158.491 66.1705 159.518 68.9027C160.545 71.635 162.132 74.1228 164.176 76.2071C166.22 78.2913 168.676 79.9262 171.388 81.0071C174.099 82.088 177.007 82.5912 179.924 82.4845V82.4909ZM196.232 57.9383H163.185C163.263 55.8601 163.752 53.8179 164.625 51.9302C165.498 50.0425 166.737 48.3467 168.27 46.9413C169.803 45.5359 171.6 44.4488 173.556 43.743C175.512 43.0371 177.589 42.7266 179.667 42.8295C181.768 42.6341 183.887 42.8796 185.888 43.5503C187.89 44.2209 189.729 45.3019 191.288 46.7241C192.847 48.1463 194.092 49.8784 194.944 51.8094C195.795 53.7404 196.234 55.8279 196.232 57.9383ZM214.432 81.5446V57.7645C214.292 55.9023 214.536 54.0312 215.147 52.2668C215.759 50.5025 216.727 48.8824 217.99 47.5067C219.253 46.131 220.784 45.029 222.49 44.2688C224.196 43.5086 226.04 43.1064 227.907 43.087C235.807 43.087 240.185 48.0632 240.185 57.1658V81.5446H245.077V57.7645C244.939 55.8952 245.186 54.0174 245.804 52.2478C246.422 50.4782 247.398 48.8546 248.67 47.478C249.942 46.1014 251.484 45.0012 253.2 44.2458C254.915 43.4904 256.768 43.096 258.642 43.087C266.542 43.087 270.92 48.0632 270.92 57.1658V81.5446H275.813V56.8246C276.104 54.457 275.873 52.0543 275.135 49.7857C274.398 47.5172 273.171 45.4381 271.543 43.6949C269.914 41.9517 267.923 40.5868 265.71 39.6965C263.496 38.8063 261.115 38.4122 258.733 38.5421C255.472 38.4914 252.266 39.3789 249.496 41.0989C246.725 42.8189 244.508 45.2989 243.107 48.2434C241.981 45.2255 239.911 42.6515 237.205 40.9037C234.499 39.156 231.302 38.3277 228.087 38.5421C225.282 38.4845 222.511 39.1685 220.054 40.5249C217.598 41.8814 215.543 43.8621 214.098 46.2671L214.001 39.1408H209.539V81.5446H214.432ZM296.756 81.5446V21.5471H287.91V81.5446H296.756ZM311.86 32.272C312.589 32.3049 313.318 32.1854 313.999 31.9211C314.681 31.6568 315.299 31.2535 315.816 30.7369C316.333 30.2202 316.736 29.6016 317 28.9205C317.265 28.2394 317.384 27.5107 317.351 26.7808C317.351 25.3236 316.772 23.9261 315.742 22.8957C314.711 21.8653 313.314 21.2864 311.856 21.2864C310.399 21.2864 309.001 21.8653 307.971 22.8957C306.94 23.9261 306.361 25.3236 306.361 26.7808C306.328 27.5112 306.448 28.2405 306.713 28.9221C306.978 29.6037 307.381 30.2226 307.899 30.7393C308.416 31.2561 309.036 31.6592 309.718 31.9231C310.4 32.187 311.129 32.3058 311.86 32.272ZM316.237 81.5382V39.0507H307.398V81.5382H316.237ZM342.505 82.8257C353.404 82.8257 360.531 77.3345 360.531 69.4357C360.531 58.4468 350.404 56.8182 342.588 56.1293C337.097 55.5307 333.491 54.2432 333.401 50.7218C333.401 47.458 336.749 45.6555 342.073 45.6555C344.158 45.5042 346.252 45.7757 348.229 46.4539C350.206 47.132 352.025 48.2027 353.578 49.6017L358.555 43.7629C354.044 39.8654 348.2 37.8652 342.247 38.1816C334.348 38.1816 324.652 41.6128 324.652 50.9729C324.652 60.333 334.006 62.9917 341.906 63.6741C348.087 64.2728 351.692 65.7341 351.692 69.3391C351.692 73.4591 346.799 75.0041 342.679 75.0041C339.91 75.0075 337.168 74.4549 334.617 73.3789C332.065 72.303 329.756 70.7256 327.826 68.7404L323.191 75.0041C325.62 77.6689 328.617 79.7553 331.959 81.1099C335.302 82.4646 338.905 83.0531 342.505 82.8321V82.8257ZM386.11 82.0532C389.273 82.0996 392.408 81.4559 395.297 80.167L392.722 72.6158C391.065 73.5361 389.208 74.0377 387.314 74.0771C383.193 74.0771 381.217 71.5858 381.217 67.1246V46.9495H393.662V39.3146H381.301V27.0383L372.371 27.9846V39.3146H364.22V46.9495H372.377V67.1182C372.377 76.9096 377.27 82.0596 386.11 82.0596V82.0532Z" fill="#A0AEC0"></path><path d="M81.551 0C87.242 0 92.7 2.26056 96.7241 6.28437C100.748 10.3082 103.009 15.7657 103.009 21.4562V81.5374C103.01 84.3556 102.456 87.1463 101.378 89.7503C100.3 92.3542 98.7191 94.7203 96.7264 96.7134C94.7338 98.7064 92.368 100.287 89.7641 101.366C87.1603 102.445 84.3694 103 81.551 103H51.5045C37.8447 103 24.7443 97.5741 15.0853 87.916C5.42636 78.2579 0 65.1586 0 51.5V21.4562C0 15.7657 2.26076 10.3082 6.28493 6.28437C10.3091 2.26056 15.767 0 21.4581 0L81.551 0ZM34.3342 30.0438C33.1953 30.0438 32.1031 30.4962 31.2978 31.3014C30.4924 32.1067 30.04 33.1988 30.04 34.3376V55.7938C30.04 60.3473 31.849 64.7142 35.0691 67.934C38.2892 71.1538 42.6565 72.9626 47.2103 72.9626H68.6684C69.2459 72.985 69.822 72.8906 70.3621 72.685C70.9022 72.4795 71.3953 72.1671 71.8118 71.7664C72.2282 71.3658 72.5596 70.8852 72.7859 70.3535C73.0122 69.8218 73.1289 69.2499 73.1289 68.672C73.1289 68.0942 73.0122 67.5222 72.7859 66.9905C72.5596 66.4588 72.2282 65.9783 71.8118 65.5776C71.3953 65.177 70.9022 64.8646 70.3621 64.659C69.822 64.4535 69.2459 64.3591 68.6684 64.3814H47.2103C46.0828 64.3814 44.9663 64.1593 43.9247 63.7276C42.8831 63.296 41.9367 62.6633 41.1397 61.8658C40.3427 61.0683 39.7107 60.1215 39.2798 59.0797C38.8489 58.0378 38.6276 56.9213 38.6284 55.7938V34.3312C38.6267 33.1935 38.1735 32.103 37.3684 31.2992C36.5633 30.4953 35.472 30.0438 34.3342 30.0438V30.0438ZM64.3807 47.2062H51.5045C50.3656 47.2062 49.2734 47.6586 48.4681 48.4638C47.6628 49.2691 47.2103 50.3612 47.2103 51.5C47.2103 52.6388 47.6628 53.7309 48.4681 54.5362C49.2734 55.3414 50.3656 55.7938 51.5045 55.7938H64.3807C64.9582 55.8162 65.5342 55.7218 66.0743 55.5162C66.6145 55.3107 67.1075 54.9982 67.524 54.5976C67.9405 54.197 68.2718 53.7164 68.4981 53.1847C68.7244 52.653 68.8411 52.0811 68.8411 51.5032C68.8411 50.9254 68.7244 50.3534 68.4981 49.8217C68.2718 49.29 67.9405 48.8094 67.524 48.4088C67.1075 48.0082 66.6145 47.6958 66.0743 47.4902C65.5342 47.2847 64.9582 47.1903 64.3807 47.2126V47.2062ZM68.6749 30.0374H51.5045C50.3656 30.0374 49.2734 30.4898 48.4681 31.295C47.6628 32.1002 47.2103 33.1924 47.2103 34.3312C47.2103 35.47 47.6628 36.5621 48.4681 37.3674C49.2734 38.1726 50.3656 38.625 51.5045 38.625H68.6749C69.2523 38.6474 69.8284 38.553 70.3685 38.3474C70.9086 38.1419 71.4017 37.8294 71.8182 37.4288C72.2347 37.0282 72.566 36.5476 72.7923 36.0159C73.0186 35.4842 73.1353 34.9123 73.1353 34.3344C73.1353 33.7565 73.0186 33.1846 72.7923 32.6529C72.566 32.1212 72.2347 31.6406 71.8182 31.24C71.4017 30.8394 70.9086 30.5269 70.3685 30.3214C69.8284 30.1159 69.2523 30.0214 68.6749 30.0438V30.0374Z" fill="#A0AEC0"></path></g><defs><clipPath id="clip0_39_19"><rect width="395.297" height="103" fill="white"></rect></clipPath></defs></svg>