<svg viewBox="0 0 553 117" focusable="false" xmlns="http://www.w3.org/2000/svg"><g clip-path="url(#clip0_39_231)"><path d="M58.4999 117C90.8086 117 117 90.8086 117 58.5C117 26.1913 90.8086 0 58.4999 0C26.1913 0 0 26.1913 0 58.5C0 90.8086 26.1913 117 58.4999 117Z" fill="#A0AEC0"></path><path fill-rule="evenodd" clip-rule="evenodd" d="M80.8834 51.7742C80.7752 51.2558 80.4946 50.8457 80.0411 50.5432C79.5876 50.2412 79.1017 50.1434 78.5833 50.2516C78.065 50.3598 77.6543 50.6403 77.3524 51.0939L73.9509 56.1475L70.5818 51.2558C70.4736 51.0401 70.3227 50.8133 70.1283 50.5755C70.0635 50.5108 70.0097 50.446 69.9663 50.3812C69.3184 49.7767 68.541 49.4741 67.6339 49.4741C66.64 49.4741 65.8522 49.8194 65.2691 50.5108C65.0229 50.744 64.8499 50.9604 64.7508 51.1587L64.8156 51.0939L61.3169 56.1798L57.8831 51.0939L57.9479 51.1587C57.8183 50.9857 57.6673 50.7913 57.4943 50.5755C57.4509 50.5321 57.4185 50.4894 57.3972 50.446C56.7493 49.7981 55.9608 49.4741 55.0323 49.4741C54.168 49.4741 53.4126 49.7767 52.7647 50.3812C52.6999 50.446 52.6351 50.5108 52.5703 50.5755C52.3973 50.7913 52.2574 50.9857 52.1492 51.1587L52.214 51.0939L48.7477 56.1798L45.3139 51.0939L45.3787 51.1587C45.2491 50.9857 45.0975 50.7913 44.9251 50.5755C44.8604 50.5108 44.8066 50.446 44.7632 50.3812C44.0939 49.7767 43.3268 49.4741 42.4631 49.4741C41.5988 49.4741 40.8434 49.7767 40.1955 50.3812C40.1741 50.4032 40.1521 50.4246 40.1307 50.446C39.8929 50.6617 39.7096 50.8781 39.58 51.0939L36.6969 55.37C36.3943 55.8235 36.2971 56.3094 36.4053 56.8277C36.5128 57.3461 36.794 57.7568 37.2476 58.0587C37.7011 58.3607 38.187 58.4585 38.7053 58.3503C39.2237 58.2427 39.6338 57.9726 39.9363 57.5404L42.4631 53.7826L45.7998 58.7066C45.9073 58.9658 46.1127 59.2463 46.4153 59.5489C47.0198 60.1754 47.7973 60.4884 48.7477 60.4884C49.6762 60.4884 50.4647 60.1754 51.1126 59.5489C51.1339 59.4841 51.1663 59.4407 51.2097 59.4193C51.3827 59.1822 51.5337 58.9768 51.6633 58.8038L55.0323 53.815L58.4986 58.901C58.5951 59.0526 58.7137 59.225 58.8549 59.4193C58.9197 59.4627 58.9845 59.5165 59.0493 59.5813C59.6972 60.1864 60.4533 60.4884 61.3169 60.4884C62.224 60.4884 63.0015 60.1864 63.6493 59.5813C63.6928 59.5165 63.7465 59.4627 63.8113 59.4193C64.0057 59.1602 64.1566 58.9224 64.2648 58.7066L67.6339 53.815L71.003 58.7066C71.1112 58.9224 71.2621 59.1602 71.4565 59.4193C71.5213 59.4627 71.5861 59.5165 71.6509 59.5813C72.2774 60.1864 73.0438 60.4884 73.9509 60.4884C74.8793 60.4884 75.6678 60.1754 76.3157 59.5489C76.3371 59.4841 76.3695 59.4407 76.4129 59.4193C76.5639 59.225 76.6934 59.0526 76.8016 58.901L80.5918 53.2643C80.8938 52.7894 80.9916 52.2925 80.8834 51.7742Z" fill="#171923"></path><path fill-rule="evenodd" clip-rule="evenodd" d="M65.1472 22.395C72.1237 22.395 78.0837 24.8784 83.0291 29.8458C87.9745 34.7698 90.4475 40.7195 90.4475 47.6954V60.9772C90.4475 67.9531 87.9745 73.9131 83.0291 78.8592C78.0837 83.8052 72.1231 86.2776 65.1472 86.2776H51.8653C44.8894 86.2776 38.9398 83.8052 34.0157 78.8592C29.0483 73.9131 26.5649 67.9531 26.5649 60.9772V47.6954C26.5649 40.7195 29.0483 34.7698 34.0157 29.8458C38.9398 24.8784 44.8894 22.395 51.8653 22.395H65.1472ZM65.1472 81.0944C70.6977 81.0944 75.4377 79.1294 79.3685 75.1986C83.2993 71.2678 85.2643 66.5278 85.2643 60.9772V47.6954C85.2643 42.1455 83.2993 37.4152 79.3685 33.5064C75.4377 29.5543 70.697 27.5782 65.1472 27.5782H51.8653C46.3148 27.5782 41.5851 29.5543 37.6764 33.5064C33.7242 37.4152 31.7481 42.1455 31.7481 47.6954V60.9772C31.7481 66.5278 33.7242 71.2678 37.6764 75.1986C41.5851 79.1294 46.3148 81.0944 51.8653 81.0944H65.1472Z" fill="#171923"></path><path fill-rule="evenodd" clip-rule="evenodd" d="M71.1658 90.1273C70.6475 89.609 70.032 89.3499 69.3193 89.3499H47.8091C47.0964 89.3499 46.4919 89.609 45.995 90.1273C45.4767 90.6236 45.2175 91.2288 45.2175 91.9414C45.2175 92.6541 45.4767 93.2696 45.995 93.7879C46.4919 94.2849 47.0964 94.533 47.8091 94.533H69.3193C70.032 94.533 70.6475 94.2849 71.1658 93.7879C71.6621 93.2696 71.9109 92.6541 71.9109 91.9414C71.9109 91.2288 71.6621 90.6236 71.1658 90.1273Z" fill="#171923"></path></g><path d="M151.2 87H139.665L157.24 36.0909H171.111L188.661 87H177.126L164.374 47.7244H163.977L151.2 87ZM150.479 66.9893H177.723V75.3913H150.479V66.9893ZM197.336 87L186.945 48.8182H197.659L203.575 74.4716H203.923L210.088 48.8182H220.603L226.867 74.3224H227.19L233.007 48.8182H243.696L233.33 87H222.119L215.557 62.9872H215.085L208.522 87H197.336ZM256.877 87L246.486 48.8182H257.2L263.116 74.4716H263.464L269.629 48.8182H280.144L286.408 74.3224H286.731L292.548 48.8182H303.237L292.871 87H281.66L275.098 62.9872H274.626L268.063 87H256.877ZM316.418 87L306.027 48.8182H316.741L322.657 74.4716H323.005L329.17 48.8182H339.685L345.949 74.3224H346.272L352.089 48.8182H362.778L352.412 87H341.201L334.639 62.9872H334.167L327.604 87H316.418ZM400.195 59.706L390.501 60.3026C390.335 59.474 389.979 58.7282 389.432 58.0653C388.885 57.3859 388.164 56.8473 387.269 56.4496C386.391 56.0353 385.339 55.8281 384.112 55.8281C382.472 55.8281 381.088 56.1761 379.961 56.8722C378.834 57.5516 378.271 58.4631 378.271 59.6065C378.271 60.518 378.635 61.2886 379.365 61.9183C380.094 62.5481 381.345 63.0535 383.118 63.4347L390.029 64.8267C393.741 65.589 396.508 66.8153 398.331 68.5057C400.154 70.196 401.066 72.4167 401.066 75.1676C401.066 77.67 400.328 79.8658 398.853 81.755C397.395 83.6442 395.39 85.1191 392.838 86.1797C390.302 87.2237 387.377 87.7457 384.063 87.7457C379.008 87.7457 374.981 86.6934 371.982 84.5888C368.999 82.4676 367.25 79.584 366.737 75.9382L377.152 75.3913C377.467 76.9325 378.229 78.1091 379.439 78.9212C380.649 79.7166 382.198 80.1143 384.088 80.1143C385.944 80.1143 387.435 79.758 388.562 79.0455C389.705 78.3163 390.285 77.38 390.302 76.2365C390.285 75.2753 389.879 74.4882 389.084 73.875C388.289 73.2453 387.062 72.7647 385.405 72.4332L378.793 71.1158C375.064 70.37 372.288 69.0774 370.465 67.2379C368.659 65.3984 367.756 63.0535 367.756 60.2031C367.756 57.7505 368.419 55.6375 369.744 53.8643C371.087 52.0911 372.968 50.724 375.387 49.7628C377.823 48.8016 380.674 48.321 383.938 48.321C388.761 48.321 392.556 49.3402 395.323 51.3785C398.107 53.4169 399.731 56.1927 400.195 59.706ZM424.985 87.7457C421.124 87.7457 417.785 86.9254 414.967 85.2848C412.167 83.6276 410.004 81.3241 408.479 78.3743C406.955 75.4079 406.192 71.9692 406.192 68.0582C406.192 64.1141 406.955 60.6671 408.479 57.7173C410.004 54.7509 412.167 52.4474 414.967 50.8068C417.785 49.1496 421.124 48.321 424.985 48.321C428.846 48.321 432.177 49.1496 434.978 50.8068C437.795 52.4474 439.966 54.7509 441.491 57.7173C443.015 60.6671 443.778 64.1141 443.778 68.0582C443.778 71.9692 443.015 75.4079 441.491 78.3743C439.966 81.3241 437.795 83.6276 434.978 85.2848C432.177 86.9254 428.846 87.7457 424.985 87.7457ZM425.035 79.5426C426.791 79.5426 428.258 79.0455 429.435 78.0511C430.611 77.0402 431.498 75.6648 432.094 73.9247C432.708 72.1847 433.014 70.2043 433.014 67.9837C433.014 65.763 432.708 63.7827 432.094 62.0426C431.498 60.3026 430.611 58.9271 429.435 57.9162C428.258 56.9053 426.791 56.3999 425.035 56.3999C423.262 56.3999 421.77 56.9053 420.56 57.9162C419.367 58.9271 418.464 60.3026 417.851 62.0426C417.254 63.7827 416.956 65.763 416.956 67.9837C416.956 70.2043 417.254 72.1847 417.851 73.9247C418.464 75.6648 419.367 77.0402 420.56 78.0511C421.77 79.0455 423.262 79.5426 425.035 79.5426ZM450.663 87V48.8182H460.756V55.5547H461.203C461.999 53.3175 463.324 51.5526 465.18 50.2599C467.036 48.9673 469.257 48.321 471.842 48.321C474.461 48.321 476.69 48.9756 478.529 50.2848C480.369 51.5774 481.595 53.334 482.208 55.5547H482.606C483.385 53.3672 484.793 51.6188 486.832 50.3097C488.887 48.9839 491.314 48.321 494.115 48.321C497.678 48.321 500.57 49.4562 502.79 51.7266C505.028 53.9803 506.146 57.1787 506.146 61.3217V87H495.582V63.4098C495.582 61.2886 495.018 59.6977 493.891 58.6371C492.764 57.5765 491.356 57.0462 489.665 57.0462C487.743 57.0462 486.243 57.6593 485.166 58.8857C484.089 60.0954 483.55 61.6946 483.55 63.6832V87H473.284V63.1861C473.284 61.3134 472.746 59.822 471.668 58.7116C470.608 57.6013 469.207 57.0462 467.467 57.0462C466.291 57.0462 465.23 57.3445 464.286 57.9411C463.357 58.5211 462.62 59.3414 462.073 60.402C461.526 61.446 461.253 62.6723 461.253 64.081V87H450.663ZM531.912 87.7457C527.984 87.7457 524.603 86.9503 521.77 85.3594C518.952 83.7519 516.781 81.4815 515.257 78.5483C513.732 75.5985 512.97 72.1101 512.97 68.0831C512.97 64.1555 513.732 60.7086 515.257 57.7422C516.781 54.7758 518.927 52.464 521.695 50.8068C524.479 49.1496 527.744 48.321 531.489 48.321C534.008 48.321 536.353 48.727 538.524 49.5391C540.711 50.3345 542.617 51.536 544.241 53.1435C545.882 54.7509 547.158 56.7727 548.069 59.2088C548.981 61.6283 549.436 64.4621 549.436 67.7102V70.6186H517.196V64.0561H539.468C539.468 62.5315 539.137 61.1809 538.474 60.0043C537.811 58.8277 536.891 57.9079 535.715 57.245C534.555 56.5656 533.204 56.2259 531.663 56.2259C530.056 56.2259 528.63 56.5987 527.387 57.3445C526.161 58.0736 525.2 59.0597 524.504 60.3026C523.808 61.5289 523.452 62.8961 523.435 64.4041V70.6435C523.435 72.5327 523.783 74.165 524.479 75.5405C525.192 76.916 526.194 77.9766 527.487 78.7223C528.779 79.468 530.312 79.8409 532.086 79.8409C533.262 79.8409 534.339 79.6752 535.317 79.3438C536.295 79.0123 537.132 78.5152 537.828 77.8523C538.524 77.1894 539.054 76.3774 539.419 75.4162L549.213 76.0625C548.716 78.4157 547.696 80.4706 546.155 82.2273C544.631 83.9673 542.658 85.3262 540.239 86.304C537.836 87.2652 535.06 87.7457 531.912 87.7457Z" fill="#A0AEC0"></path><defs><clipPath id="clip0_39_231"><rect width="117" height="117" fill="white"></rect></clipPath></defs></svg>