<svg viewBox="0 0 446 84" focusable="false" xmlns="http://www.w3.org/2000/svg"><path d="M15.923 15.9566C18.8544 13.019 18.8544 8.25635 15.923 5.31882C12.9917 2.38128 8.23903 2.38128 5.30768 5.31882C2.37633 8.25635 2.37633 13.019 5.30768 15.9566C8.23903 18.8941 12.9917 18.8941 15.923 15.9566Z" fill="#A0AEC0"></path><path d="M39.609 18.1609C43.7546 18.1609 47.1153 14.7931 47.1153 10.6388C47.1153 6.48446 43.7546 3.1167 39.609 3.1167C35.4635 3.1167 32.1028 6.48446 32.1028 10.6388C32.1028 14.7931 35.4635 18.1609 39.609 18.1609Z" fill="#A0AEC0"></path><path d="M67.8955 18.1609C72.0411 18.1609 75.4018 14.7931 75.4018 10.6388C75.4018 6.48446 72.0411 3.1167 67.8955 3.1167C63.75 3.1167 60.3893 6.48446 60.3893 10.6388C60.3893 14.7931 63.75 18.1609 67.8955 18.1609Z" fill="#A0AEC0"></path><path d="M39.609 61.777C43.7537 61.777 47.1153 58.4102 47.1153 54.2549V34.2897C47.1153 30.1363 43.7556 26.7676 39.609 26.7676C35.4644 26.7676 32.1028 30.1344 32.1028 34.2897V54.2549C32.1028 58.4083 35.4644 61.777 39.609 61.777Z" fill="#A0AEC0"></path><path d="M75.5855 46.3224L75.5817 46.0184C75.5855 45.6745 75.5855 45.3287 75.5798 44.9829C75.5779 44.8651 75.5722 44.7492 75.5665 44.6314L75.4262 31.8216C75.4224 27.6131 72.0134 24.2064 67.8157 24.2102C63.6161 24.214 60.2165 27.6302 60.2203 31.8368L60.2715 46.3091C59.898 58.1499 50.7896 67.7297 39.4989 67.8912C27.8575 68.0584 18.2372 58.1499 18.0533 45.8037C18.0514 45.6593 18.0438 45.5168 18.0343 45.3762C18.0343 45.3743 18.0343 45.3724 18.0343 45.3705L17.7082 31.7323C17.7025 27.6207 14.375 24.2919 10.2721 24.2957C6.16726 24.2995 2.84168 27.6378 2.84736 31.7513L2.76204 45.5719C2.75635 45.722 2.75256 45.8721 2.75446 46.0222C2.75446 46.0735 2.75825 46.1248 2.75825 46.1761L2.75256 46.9323C2.75256 47.147 2.77532 47.356 2.80755 47.5612C3.24173 55.6001 6.11038 62.9607 10.657 68.8811C17.4523 77.7294 27.994 83.3515 39.7246 83.1843C59.369 82.9031 75.1873 66.4909 75.5741 46.3205H75.5855V46.3224Z" fill="#A0AEC0"></path><path d="M167.652 21.882L151.232 67.5903H143.935L138.265 53.2244L133.444 38.7939L128.687 53.3536L123.149 67.5884H115.851L99.1055 21.8801H108.749L119.501 54.8546L130.577 21.8801H136.182L147.584 54.8546L158.009 21.8801H167.652V21.882Z" fill="#A0AEC0"></path><path d="M198.797 54.336H173.711C173.973 56.3823 174.949 58.0372 176.642 59.2988C178.337 60.5623 180.552 61.1931 183.29 61.1931C184.852 61.1931 186.46 60.9214 188.111 60.3761C189.763 59.8308 191.022 59.1031 191.89 58.1892L196.973 63.2166C195.365 64.9133 193.303 66.2091 190.783 67.1021C188.263 67.9932 185.722 68.4416 183.159 68.4416C177.685 68.4416 173.374 66.8855 170.224 63.7733C167.075 60.6611 165.501 56.4925 165.501 51.2694C165.501 46.3066 167.054 42.2596 170.16 39.1246C173.266 35.9896 177.403 34.4221 182.573 34.4221C188.089 34.4221 192.324 36.1302 195.278 39.5483C198.232 42.9626 199.406 47.8931 198.797 54.336ZM173.842 47.7411H191.173C190.914 45.6948 190.043 44.1387 188.566 43.0728C187.089 42.0069 185.178 41.473 182.833 41.473C180.618 41.473 178.705 42.0069 177.099 43.0728C175.492 44.1387 174.405 45.6948 173.842 47.7411Z" fill="#A0AEC0"></path><path d="M204.921 21.9482H212.871V39.774C213.739 38.2065 215.249 36.9563 217.401 36.0196C219.551 35.0829 221.56 34.6155 223.428 34.6155C228.293 34.6155 232.235 36.0747 235.253 38.9893C238.272 41.9058 239.783 46.063 239.783 51.4609C239.783 56.6422 238.228 60.7443 235.124 63.7691C232.019 66.7939 228.054 68.3082 223.233 68.3082C218.542 68.3082 215.088 66.5887 212.873 63.1497L212.352 67.59H204.923V21.9482H204.921ZM222.711 42.0597C220.148 42.0597 217.954 42.9413 216.13 44.7045C214.306 46.4677 213.394 48.7192 213.394 51.4628C213.394 54.2938 214.295 56.5776 216.098 58.3199C217.899 60.0622 220.104 60.9324 222.711 60.9324C225.275 60.9324 227.434 60.0508 229.194 58.2876C230.953 56.5244 231.833 54.2501 231.833 51.4647C231.833 48.6356 230.963 46.3613 229.226 44.6418C227.487 42.9185 225.316 42.0597 222.711 42.0597Z" fill="#A0AEC0"></path><path d="M246.396 29.7838C245.418 28.9573 244.93 27.804 244.93 26.3239C244.93 24.8438 245.42 23.6905 246.396 22.864C247.374 22.0375 248.449 21.6233 249.621 21.6233C250.795 21.6233 251.87 22.0375 252.846 22.864C253.823 23.6924 254.312 24.8457 254.312 26.3239C254.312 27.804 253.823 28.9592 252.846 29.7838C251.868 30.6122 250.793 31.0245 249.621 31.0245C248.449 31.0245 247.372 30.6103 246.396 29.7838ZM253.595 35.2691H245.645V67.5919H253.595V35.2691Z" fill="#A0AEC0"></path><path d="M296.339 29.3906L289.498 32.917C288.671 31.5243 287.261 30.3273 285.262 29.326C283.264 28.3247 281.07 27.825 278.681 27.825C275.597 27.825 273.251 28.3912 271.645 29.5217C270.037 30.6541 269.234 32.1133 269.234 33.8974C269.234 35.1609 269.732 36.1945 270.731 36.9982C271.731 37.8038 272.904 38.3795 274.25 38.7272C275.597 39.0768 277.312 39.3808 279.398 39.6411C281.527 39.9033 283.395 40.2073 285.003 40.555C286.609 40.9046 288.262 41.4366 289.955 42.1548C291.648 42.873 293.027 43.7223 294.092 44.7008C295.156 45.6812 296.036 46.9865 296.731 48.6186C297.425 50.2507 297.774 52.1127 297.774 54.2008C297.774 57.4669 296.862 60.22 295.038 62.462C293.214 64.704 290.901 66.3152 288.099 67.2937C285.297 68.2741 282.136 68.7624 278.619 68.7624C268.411 68.7624 261.786 65.0194 258.745 57.5315L265.912 53.8094C266.867 56.2034 268.507 58.0103 270.83 59.2282C273.155 60.448 275.792 61.056 278.748 61.056C281.745 61.056 284.242 60.4898 286.241 59.3574C288.237 58.2269 289.238 56.5074 289.238 54.1989C289.238 50.4559 285.719 48.2139 278.681 47.4748C276.031 47.1708 273.763 46.768 271.873 46.2664C269.982 45.7667 268.126 45.0162 266.302 44.013C264.478 43.0117 263.098 41.6399 262.163 39.8995C261.229 38.1591 260.762 36.0691 260.762 33.6314C260.762 30.6712 261.674 28.1461 263.498 26.0561C265.322 23.9661 267.516 22.4974 270.079 21.6481C272.643 20.7988 275.422 20.3542 278.42 20.3105C287.412 20.3162 293.385 23.341 296.339 29.3906Z" fill="#A0AEC0"></path><path d="M304.484 21.8823H312.434V39.7727C314.91 36.5522 318.255 34.941 322.47 34.941C326.9 34.941 330.201 36.3242 332.374 39.0868C334.545 41.8513 335.632 45.6931 335.632 50.6122V67.5887H327.682V50.6768C327.682 47.8477 327.018 45.7463 325.695 44.3764C324.369 43.0046 322.6 42.3187 320.384 42.3187C318.082 42.3187 316.182 43.168 314.683 44.8647C313.185 46.5614 312.434 48.6514 312.434 51.1328V67.5868H304.484V21.8823V21.8823Z" fill="#A0AEC0"></path><path d="M367.556 39.8385L367.818 35.3982H375.442V67.5899H367.949L367.558 62.8874C366.69 64.6297 365.234 66.0015 363.194 67.0009C361.152 68.0022 359.13 68.5247 357.134 68.5684C352.223 68.6121 348.24 67.1434 345.178 64.1604C342.116 61.1793 340.584 56.9442 340.584 51.4589C340.584 46.1047 342.157 41.9475 345.307 38.9873C348.456 36.0271 352.464 34.5698 357.329 34.6135C359.5 34.6135 361.521 35.0923 363.389 36.0499C365.255 37.0094 366.644 38.271 367.556 39.8385ZM358.044 41.7328C355.308 41.7328 353.037 42.603 351.236 44.3453C349.432 46.0876 348.532 48.4588 348.532 51.4627C348.532 54.4666 349.432 56.8492 351.236 58.6124C353.037 60.3756 355.308 61.2572 358.044 61.2572C360.433 61.2572 362.443 60.5827 364.071 59.2337C365.7 57.8847 366.699 56.2621 367.069 54.3697C367.437 52.4754 367.437 50.5735 367.069 48.6564C366.699 46.7412 365.702 45.1091 364.071 43.7582C362.443 42.4073 360.433 41.7328 358.044 41.7328Z" fill="#A0AEC0"></path><path d="M382.152 35.3981H389.514L390.1 39.1202C391.228 37.2924 392.532 36.0726 394.009 35.4627C395.486 34.8547 397.202 34.5488 399.157 34.5488C402.632 34.5488 405.389 35.5729 407.433 37.6173L403.85 44.539C402.198 43.1463 400.287 42.449 398.116 42.449C395.812 42.449 393.901 43.114 392.383 44.4402C390.862 45.7683 390.102 47.826 390.102 50.6114V67.5879H382.152V35.3981V35.3981Z" fill="#A0AEC0"></path><path d="M418.38 81.0404H410.431V35.3986H417.859L418.38 39.8389C419.554 38.1403 421.096 36.8578 423.007 35.9857C424.918 35.1155 426.852 34.6804 428.807 34.6804C433.672 34.6804 437.634 36.2802 440.698 39.4798C443.76 42.6794 445.292 46.6941 445.292 51.5277C445.292 56.4031 443.836 60.4311 440.928 63.6079C438.017 66.7866 434.064 68.375 429.068 68.375C427.026 68.375 424.996 68.0159 422.976 67.2977C420.957 66.5795 419.425 65.4167 418.382 63.8055V81.0404H418.38ZM421.67 58.0238C423.386 59.787 425.568 60.6686 428.219 60.6686C430.868 60.6686 433.05 59.787 434.768 58.0238C436.484 56.2606 437.34 54.0965 437.34 51.5277C437.34 48.9152 436.514 46.7397 434.864 44.9974C433.213 43.257 430.996 42.3849 428.219 42.3849C425.439 42.3849 423.223 43.257 421.571 44.9974C419.92 46.7378 419.095 48.9152 419.095 51.5277C419.097 54.0965 419.954 56.2606 421.67 58.0238Z" fill="#A0AEC0"></path></svg>