<svg viewBox="0 0 521 78" focusable="false" xmlns="http://www.w3.org/2000/svg"><path d="M23.3153 56.0265C20.8969 55.4575 18.5975 54.468 16.5222 53.1032L19.9192 45.4825C21.6828 46.6205 23.601 47.4993 25.6149 48.0921C27.6785 48.7388 29.8273 49.0732 31.99 49.0844C35.9618 49.0844 37.9475 48.0925 37.9473 46.1087C37.9435 45.5929 37.7777 45.0913 37.4733 44.6746C37.1689 44.2579 36.7412 43.9472 36.2505 43.7863C34.4825 43.0909 32.6547 42.5579 30.7899 42.1937C28.4496 41.7176 26.1449 41.081 23.8922 40.2886C22.0573 39.6184 20.4216 38.4962 19.1368 37.026C17.7416 35.3259 17.0332 33.1662 17.1507 30.971C17.1269 28.8216 17.7656 26.7168 18.9801 24.9423C20.3524 23.0286 22.2485 21.5513 24.4408 20.6877C27.2735 19.568 30.3047 19.0354 33.3499 19.1222C35.7421 19.121 38.1265 19.3924 40.4571 19.9311C42.6213 20.4054 44.7006 21.2064 46.6233 22.3065L43.4354 29.9799C40.3453 28.2083 36.8596 27.2393 33.2975 27.1617C31.744 27.0494 30.1894 27.3653 28.8034 28.0751C28.3788 28.3107 28.0244 28.6546 27.7765 29.0718C27.5287 29.489 27.3962 29.9645 27.3926 30.4496C27.4054 30.9442 27.5738 31.4223 27.8739 31.8159C28.1741 32.2096 28.5907 32.4988 29.0647 32.6425C30.8081 33.3121 32.6099 33.8187 34.447 34.156C36.7975 34.626 39.1115 35.2626 41.3715 36.0611C43.1967 36.7369 44.8291 37.8477 46.1269 39.2969C47.5389 40.9788 48.2579 43.1341 48.1384 45.3259C48.159 47.4505 47.5202 49.5293 46.3098 51.2764C44.9206 53.1841 43.0179 54.6588 40.823 55.5292C38.0016 56.6618 34.9774 57.2037 31.9379 57.1212C29.0285 57.1282 26.1304 56.7603 23.3153 56.0265V56.0265Z" fill="#A0AEC0"></path><path d="M64.8323 54.6698C61.8101 53.0871 59.2789 50.7086 57.5129 47.7919C55.7469 44.8752 54.8134 41.5316 54.8134 38.1229C54.8134 34.7143 55.7469 31.3706 57.5129 28.4539C59.2789 25.5372 61.8101 23.1587 64.8323 21.576C68.0701 19.9623 71.639 19.1223 75.2575 19.1223C78.8759 19.1223 82.4449 19.9623 85.6827 21.576C88.7048 23.1588 91.2359 25.5373 93.0018 28.454C94.7677 31.3706 95.7013 34.7143 95.7013 38.1229C95.7013 41.5315 94.7677 44.8752 93.0018 47.7918C91.2359 50.7085 88.7048 53.087 85.6827 54.6698C82.4447 56.2831 78.8759 57.1229 75.2575 57.1229C71.6391 57.1229 68.0702 56.2831 64.8323 54.6698V54.6698ZM80.2745 47.2556C81.7771 46.3812 83.0074 45.1074 83.8282 43.576C84.6869 41.8857 85.1344 40.0169 85.1344 38.1214C85.1344 36.2259 84.6869 34.3571 83.8282 32.6667C83.0069 31.1354 81.7768 29.8615 80.2745 28.9863C78.7412 28.1307 77.0141 27.6815 75.2578 27.6815C73.5015 27.6815 71.7744 28.1307 70.2411 28.9863C68.7384 29.8609 67.5081 31.1349 66.6871 32.6664C65.8284 34.3568 65.3809 36.2256 65.3809 38.1211C65.3809 40.0166 65.8284 41.8853 66.6871 43.5757C67.5075 45.1074 68.7378 46.3813 70.2408 47.2552C71.774 48.1112 73.5011 48.5607 75.2575 48.5607C77.0139 48.5607 78.741 48.1112 80.2742 47.2552L80.2745 47.2556Z" fill="#A0AEC0"></path><path d="M112.855 54.6927C109.881 53.1452 107.394 50.8054 105.67 47.9327C103.906 44.9665 103.002 41.5694 103.057 38.1199C103.002 34.6702 103.906 31.2729 105.67 28.3065C107.394 25.4338 109.881 23.0941 112.855 21.5468C116.04 19.8953 119.587 19.0611 123.176 19.1193C126.28 19.072 129.36 19.6767 132.215 20.8944C134.83 22.0265 137.127 23.7832 138.903 26.01L132.32 31.9605C131.311 30.6312 130.007 29.5532 128.511 28.8107C127.015 28.0681 125.368 27.6811 123.698 27.68C121.846 27.6466 120.018 28.0963 118.393 28.9848C116.861 29.8374 115.608 31.1158 114.788 32.6649C113.946 34.3603 113.508 36.2271 113.508 38.1196C113.508 40.012 113.946 41.8788 114.788 43.5742C115.608 45.1237 116.861 46.402 118.394 47.2538C120.018 48.1426 121.847 48.5926 123.698 48.5592C125.368 48.5579 127.016 48.171 128.511 47.4285C130.007 46.6861 131.311 45.6083 132.32 44.2793L138.905 50.2307C137.129 52.4576 134.832 54.2143 132.216 55.3463C129.361 56.5639 126.281 57.1685 123.177 57.1211C119.588 57.179 116.041 56.3445 112.855 54.6927V54.6927Z" fill="#A0AEC0"></path><path d="M147.422 19.8506H157.769V56.3898H147.422V19.8506Z" fill="#A0AEC0"></path><path d="M193.563 49.2908H178.095L175.222 56.3898H164.666L180.813 19.8506H191.003L207.203 56.3898H196.438L193.563 49.2908ZM190.533 41.6694L185.83 29.9771L181.126 41.6694H190.533Z" fill="#A0AEC0"></path><path d="M214.049 19.8506H224.395V48.194H241.849V56.3913H214.049V19.8506Z" fill="#A0AEC0"></path><path d="M260.054 48.5515H256.009V57.122H260.054V48.5515Z" fill="#A0AEC0"></path><path d="M287.984 48.5515H283.994V57.122H287.984V48.5515Z" fill="#A0AEC0"></path><path d="M283.993 30.7627V35.9369H260.053V30.7627H256.008V46.4209H260.053V39.487H283.993V46.4209H287.985V30.7627H283.993Z" fill="#A0AEC0"></path><path d="M261.6 18.9023H257.555V28.6328H261.6V18.9023Z" fill="#A0AEC0"></path><path d="M289.53 18.9023H285.54V28.6328H289.53V18.9023Z" fill="#A0AEC0"></path><path d="M357.361 24.2525C359.885 22.8567 362.73 22.1413 365.615 22.1767C367.711 22.1138 369.798 22.484 371.745 23.264C373.692 24.0439 375.457 25.217 376.929 26.7096L379.499 24.1425C377.802 22.3098 375.708 20.8905 373.376 19.9939C370.866 19.028 368.196 18.5462 365.506 18.5739C361.922 18.5235 358.385 19.388 355.229 21.0855C352.234 22.696 349.746 25.106 348.042 28.0467C347.932 28.2359 347.857 28.4393 347.752 28.6322H352.418C353.725 26.8284 355.412 25.3332 357.361 24.2525V24.2525Z" fill="#A0AEC0"></path><path d="M347.89 38.0127C347.87 35.4961 348.45 33.0109 349.582 30.7627H345.219C344.333 33.0769 343.886 35.5353 343.899 38.0127C343.88 40.9157 344.503 43.7872 345.725 46.4212H350.217C350.147 46.3081 350.063 46.2085 349.995 46.093C348.578 43.6381 347.85 40.8464 347.89 38.0127V38.0127Z" fill="#A0AEC0"></path><path d="M353.657 54.9375C356.801 56.6369 360.33 57.5017 363.905 57.4491C366.606 57.4748 369.287 56.9832 371.803 56.0007C374.144 55.0923 376.247 53.6638 377.953 51.8235L375.383 49.2576C373.923 50.77 372.162 51.9595 370.213 52.7495C368.264 53.5394 366.171 53.9121 364.069 53.8435C361.184 53.8794 358.34 53.1645 355.815 51.7692C354.312 50.927 352.961 49.8384 351.819 48.5488H346.883C348.554 51.2239 350.887 53.4241 353.657 54.9375Z" fill="#A0AEC0"></path><path d="M394.732 48.5515H390.688V57.122H394.732V48.5515Z" fill="#A0AEC0"></path><path d="M423.388 18.9028H418.741L409.279 28.6318H414.077L423.388 18.9028Z" fill="#A0AEC0"></path><path d="M410.495 30.7627H405.661L394.733 41.9986V30.7627H390.689V46.4209H395.378L402.548 39.1604L408.869 46.4209H413.929L405.281 36.2112L410.495 30.7627Z" fill="#A0AEC0"></path><path d="M396.278 18.9023H392.233V28.6328H396.278V18.9023Z" fill="#A0AEC0"></path><path d="M418.179 57.1191H422.989L415.733 48.5488H410.723L418.179 57.1191Z" fill="#A0AEC0"></path><path d="M459.777 57.1191H464.204L458.092 48.5488H453.674L459.777 57.1191Z" fill="#A0AEC0"></path><path d="M439.24 22.3964H449.408C452.506 22.1877 455.579 23.0665 458.097 24.8809C459.284 25.8595 460.158 27.1637 460.612 28.6325H464.771C464.243 26.1916 462.914 23.9969 460.994 22.3964C457.709 19.8997 453.637 18.6602 449.516 18.9021H435.195V28.6325H439.24V22.3964Z" fill="#A0AEC0"></path><path d="M461.335 39.5699C462.894 37.3625 463.69 34.7081 463.604 32.0083C463.604 31.5821 463.579 31.171 463.549 30.7639H459.496C459.535 31.1646 459.557 31.5787 459.557 32.0083C459.629 33.3339 459.395 34.6582 458.874 35.8792C458.352 37.1002 457.557 38.1854 456.55 39.0513C454.039 40.8838 450.962 41.7732 447.86 41.5628H437.693V30.7627H433.648V46.4212H437.693V45.0014H447.969C448.991 45.0035 450.013 44.9487 451.029 44.8372L452.157 46.4212H456.569L454.855 44.0174C457.435 43.2652 459.707 41.7064 461.335 39.5699V39.5699Z" fill="#A0AEC0"></path><path d="M437.695 48.5515H433.65V57.122H437.695V48.5515Z" fill="#A0AEC0"></path><path d="M482.611 23.9528C484.858 22.5074 487.514 21.8278 490.181 22.0156C491.995 22.0252 493.799 22.2916 495.538 22.807C497.361 23.3346 499.093 24.1346 500.675 25.1799L502.043 21.9602C500.377 20.8415 498.54 20.0023 496.603 19.4757C494.516 18.8755 492.353 18.5721 490.181 18.5743C487.487 18.4914 484.805 18.9752 482.311 19.9943C480.404 20.7702 478.769 22.0899 477.609 23.7885C476.678 25.2369 476.159 26.9112 476.108 28.6318H480.104C480.135 27.7121 480.377 26.8118 480.812 26.0005C481.246 25.1892 481.862 24.4886 482.611 23.9528V23.9528Z" fill="#A0AEC0"></path><path d="M476.365 34.6814C477.562 36.0484 479.072 37.1069 480.765 37.7671C483.016 38.6067 485.316 39.3084 487.652 39.8685C489.556 40.3065 491.435 40.8444 493.282 41.48C494.559 41.9277 495.724 42.6443 496.699 43.5814C497.457 44.3458 497.926 45.3496 498.025 46.4212H502.04C502.04 44.6205 501.417 42.8752 500.278 41.48C499.081 40.1188 497.571 39.069 495.877 38.4214C493.653 37.5986 491.381 36.9149 489.072 36.3742C486.703 35.7923 484.818 35.2557 483.416 34.7643C482.103 34.3286 480.907 33.6002 479.918 32.6342C479.4 32.11 479.018 31.4676 478.804 30.7627H474.653C474.824 32.2091 475.419 33.5726 476.365 34.6814V34.6814Z" fill="#A0AEC0"></path><path d="M495.523 52.1248C493.213 53.5401 490.519 54.1989 487.816 54.0089C485.39 54.0115 482.983 53.5769 480.711 52.726C478.65 52.0159 476.767 50.8702 475.19 49.367L473.604 52.4795C475.303 54.1413 477.373 55.3762 479.644 56.0823C482.271 56.9965 485.034 57.4583 487.816 57.4481C490.525 57.5257 493.222 57.0517 495.742 56.0552C497.674 55.3 499.338 53.989 500.524 52.2881C501.268 51.1603 501.757 49.8845 501.959 48.5491H497.944C497.619 50.0041 496.754 51.2819 495.523 52.1248V52.1248Z" fill="#A0AEC0"></path><path d="M287.984 28.6321H283.994V30.7618H287.984V28.6321Z" fill="#A0AEC0"></path><path d="M260.054 28.6321H256.009V30.7618H260.054V28.6321Z" fill="#A0AEC0"></path><path d="M348.037 30.7625C348.177 30.4851 348.292 30.2001 348.45 29.9304C348.72 29.483 349.013 29.0497 349.327 28.6321H344.662C344.288 29.3206 343.958 30.032 343.674 30.7619L348.037 30.7625Z" fill="#A0AEC0"></path><path d="M408.949 30.7615L410.985 28.6321H406.187L404.114 30.7615H408.949Z" fill="#A0AEC0"></path><path d="M393.187 28.6321H389.142V30.7618H393.187V28.6321Z" fill="#A0AEC0"></path><path d="M457.95 30.7618H462.003C461.95 30.0448 461.841 29.3328 461.68 28.6321H457.521C457.739 29.3246 457.883 30.0386 457.95 30.7618V30.7618Z" fill="#A0AEC0"></path><path d="M436.149 28.6321H432.104V30.7618H436.149V28.6321Z" fill="#A0AEC0"></path><path d="M473.108 30.7618H477.259C477.071 30.1754 476.977 29.5633 476.978 28.9476C476.978 28.8373 477.009 28.7399 477.013 28.6321H473.017C473.011 28.7754 472.988 28.9125 472.988 29.0577C472.987 29.6279 473.026 30.1974 473.108 30.7618Z" fill="#A0AEC0"></path><path d="M261.6 46.4211H257.555V48.5509H261.6V46.4211Z" fill="#A0AEC0"></path><path d="M289.53 46.4211H285.54V48.5509H289.53V46.4211Z" fill="#A0AEC0"></path><path d="M347.27 46.4211C347.514 46.945 347.748 47.4735 348.042 47.9774C348.159 48.1796 348.305 48.3549 348.429 48.5512H353.365C352.769 47.8897 352.232 47.1769 351.761 46.4211H347.27Z" fill="#A0AEC0"></path><path d="M396.924 46.4209H392.234V48.5504H396.279V47.0773L396.924 46.4209Z" fill="#A0AEC0"></path><path d="M410.415 46.4209L412.269 48.5504H417.279L415.475 46.4209H410.415Z" fill="#A0AEC0"></path><path d="M439.24 46.4211H435.195V48.5509H439.24V46.4211Z" fill="#A0AEC0"></path><path d="M453.705 46.4209L455.219 48.5504H459.637L458.116 46.4209H453.705Z" fill="#A0AEC0"></path><path d="M503.587 46.4211H499.571C499.611 46.6925 499.633 46.9661 499.637 47.2403C499.635 47.6812 499.585 48.1207 499.49 48.5512H503.505C503.585 48.0452 503.626 47.5338 503.628 47.0215C503.627 46.8119 503.597 46.6245 503.587 46.4211Z" fill="#A0AEC0"></path><path d="M257.326 48.5515H253.281V57.122H257.326V48.5515Z" fill="#A0AEC0"></path><path d="M285.258 48.5515H281.267V57.122H285.258V48.5515Z" fill="#A0AEC0"></path><path d="M281.266 30.7627V35.9369H257.326V30.7627H253.281V46.4209H257.326V39.487H281.266V46.4209H285.258V30.7627H281.266Z" fill="#A0AEC0"></path><path d="M258.872 18.9023H254.827V28.6328H258.872V18.9023Z" fill="#A0AEC0"></path><path d="M286.803 18.9023H282.813V28.6328H286.803V18.9023Z" fill="#A0AEC0"></path><path d="M354.634 24.2525C357.159 22.8567 360.003 22.1413 362.888 22.1767C364.984 22.1138 367.071 22.484 369.018 23.264C370.965 24.0439 372.73 25.217 374.202 26.7096L376.772 24.1425C375.076 22.3098 372.981 20.8905 370.649 19.9939C368.139 19.028 365.469 18.5462 362.779 18.5739C359.195 18.5235 355.658 19.388 352.502 21.0854C349.507 22.6959 347.019 25.1059 345.315 28.0467C345.205 28.2359 345.13 28.4393 345.026 28.6322H349.691C350.998 26.8284 352.685 25.3332 354.634 24.2525V24.2525Z" fill="#A0AEC0"></path><path d="M345.161 38.0127C345.142 35.4961 345.722 33.011 346.854 30.7627H342.491C341.605 33.0769 341.158 35.5353 341.171 38.0127C341.151 40.9157 341.775 43.7872 342.997 46.4212H347.488C347.418 46.3081 347.334 46.2085 347.266 46.093C345.849 43.6381 345.122 40.8464 345.161 38.0127V38.0127Z" fill="#A0AEC0"></path><path d="M350.93 54.9375C354.075 56.6369 357.604 57.5017 361.179 57.4491C363.88 57.4748 366.561 56.9831 369.077 56.0007C371.417 55.0922 373.52 53.6637 375.227 51.8235L372.656 49.2576C371.197 50.77 369.435 51.9596 367.486 52.7495C365.538 53.5394 363.444 53.9121 361.342 53.8435C358.458 53.8794 355.613 53.1645 353.089 51.7692C351.586 50.927 350.235 49.8384 349.093 48.5488H344.156C345.828 51.224 348.161 53.4242 350.93 54.9375V54.9375Z" fill="#A0AEC0"></path><path d="M392.005 48.5515H387.961V57.122H392.005V48.5515Z" fill="#A0AEC0"></path><path d="M420.66 18.9028H416.013L406.552 28.6318H411.349L420.66 18.9028Z" fill="#A0AEC0"></path><path d="M407.767 30.7627H402.933L392.005 41.9986V30.7627H387.961V46.4209H392.65L399.82 39.1604L406.141 46.4209H411.201L402.554 36.2112L407.767 30.7627Z" fill="#A0AEC0"></path><path d="M393.551 18.9023H389.506V28.6328H393.551V18.9023Z" fill="#A0AEC0"></path><path d="M415.453 57.1191H420.262L413.006 48.5488H407.996L415.453 57.1191Z" fill="#A0AEC0"></path><path d="M457.049 57.1191H461.476L455.364 48.5488H450.947L457.049 57.1191Z" fill="#A0AEC0"></path><path d="M436.512 22.3964H446.679C449.777 22.1877 452.85 23.0665 455.369 24.8809C456.555 25.8594 457.429 27.1636 457.883 28.6326H462.043C461.515 26.1917 460.185 23.9969 458.266 22.3964C454.98 19.8997 450.909 18.6602 446.788 18.9021H432.467V28.6326H436.512V22.3964Z" fill="#A0AEC0"></path><path d="M458.608 39.5699C460.166 37.3624 460.962 34.708 460.876 32.0083C460.876 31.5821 460.852 31.171 460.822 30.7639H456.769C456.807 31.1646 456.831 31.5787 456.831 32.0083C456.902 33.3339 456.668 34.6582 456.147 35.8792C455.625 37.1002 454.83 38.1854 453.823 39.0513C451.313 40.8838 448.236 41.7732 445.133 41.5628H434.966V30.7627H430.922V46.4212H434.966V45.0014H445.242C446.265 45.0035 447.286 44.9487 448.303 44.8372L449.431 46.4212H453.842L452.129 44.0174C454.709 43.2648 456.98 41.7061 458.608 39.5699V39.5699Z" fill="#A0AEC0"></path><path d="M434.968 48.5515H430.923V57.122H434.968V48.5515Z" fill="#A0AEC0"></path><path d="M479.884 23.9528C482.132 22.5074 484.787 21.8277 487.454 22.0156C489.268 22.0252 491.072 22.2916 492.811 22.807C494.633 23.3346 496.365 24.1346 497.948 25.1799L499.315 21.9602C497.65 20.8416 495.813 20.0024 493.877 19.4757C491.789 18.8755 489.627 18.5721 487.454 18.5743C484.76 18.4914 482.078 18.9752 479.583 19.9943C477.677 20.7702 476.042 22.0899 474.883 23.7885C473.951 25.2369 473.432 26.9111 473.381 28.6317H477.377C477.408 27.7121 477.65 26.8118 478.085 26.0005C478.519 25.1892 479.135 24.4886 479.884 23.9528Z" fill="#A0AEC0"></path><path d="M473.637 34.6814C474.834 36.0482 476.344 37.1067 478.037 37.7671C480.288 38.6066 482.587 39.3084 484.923 39.8685C486.827 40.3064 488.707 40.8443 490.554 41.48C491.83 41.9277 492.996 42.6443 493.971 43.5814C494.729 44.3458 495.198 45.3496 495.297 46.4212H499.312C499.312 44.6205 498.689 42.8752 497.55 41.48C496.353 40.1188 494.843 39.069 493.149 38.4214C490.926 37.5987 488.653 36.9149 486.344 36.3742C483.975 35.7923 482.09 35.2557 480.688 34.7643C479.375 34.3286 478.179 33.6002 477.19 32.6342C476.672 32.1099 476.29 31.4676 476.076 30.7627H471.925C472.096 32.2092 472.692 33.5726 473.637 34.6814V34.6814Z" fill="#A0AEC0"></path><path d="M492.796 52.1248C490.487 53.5402 487.792 54.1989 485.089 54.0089C482.663 54.0115 480.256 53.5769 477.984 52.726C475.923 52.0159 474.04 50.8702 472.463 49.367L470.877 52.4795C472.577 54.1414 474.647 55.3762 476.917 56.0823C479.544 56.9965 482.307 57.4584 485.089 57.4481C487.798 57.5257 490.495 57.0518 493.015 56.0552C494.947 55.3001 496.611 53.989 497.797 52.2881C498.541 51.1604 499.031 49.8846 499.232 48.5491H495.217C494.892 50.0041 494.027 51.2818 492.796 52.1248V52.1248Z" fill="#A0AEC0"></path><path d="M285.258 28.6321H281.267V30.7618H285.258V28.6321Z" fill="#A0AEC0"></path><path d="M257.326 28.6321H253.281V30.7618H257.326V28.6321Z" fill="#A0AEC0"></path><path d="M345.31 30.7625C345.45 30.4851 345.566 30.2001 345.723 29.9304C345.993 29.4831 346.286 29.0498 346.6 28.6321H341.935C341.561 29.3206 341.232 30.0319 340.948 30.7619L345.31 30.7625Z" fill="#A0AEC0"></path><path d="M406.222 30.7615L408.261 28.6321H403.461L401.387 30.7615H406.222Z" fill="#A0AEC0"></path><path d="M390.46 28.6321H386.415V30.7618H390.46V28.6321Z" fill="#A0AEC0"></path><path d="M455.223 30.7618H459.276C459.223 30.0448 459.114 29.3328 458.953 28.6321H454.792C455.012 29.3246 455.156 30.0386 455.223 30.7618V30.7618Z" fill="#A0AEC0"></path><path d="M433.422 28.6321H429.378V30.7618H433.422V28.6321Z" fill="#A0AEC0"></path><path d="M470.381 30.7618H474.532C474.345 30.1754 474.25 29.5633 474.252 28.9476C474.252 28.8373 474.281 28.7399 474.286 28.6321H470.291C470.285 28.7754 470.262 28.9125 470.262 29.0577C470.26 29.6279 470.3 30.1974 470.381 30.7618V30.7618Z" fill="#A0AEC0"></path><path d="M258.872 46.4211H254.827V48.5509H258.872V46.4211Z" fill="#A0AEC0"></path><path d="M286.803 46.4211H282.813V48.5509H286.803V46.4211Z" fill="#A0AEC0"></path><path d="M344.545 46.4211C344.789 46.945 345.022 47.4735 345.316 47.9774C345.434 48.1796 345.58 48.3549 345.704 48.5512H350.64C350.044 47.8896 349.507 47.1768 349.036 46.4211H344.545Z" fill="#A0AEC0"></path><path d="M394.196 46.4209H389.507V48.5504H393.551V47.0773L394.196 46.4209Z" fill="#A0AEC0"></path><path d="M407.687 46.4209L409.541 48.5504H414.552L412.747 46.4209H407.687Z" fill="#A0AEC0"></path><path d="M436.512 46.4211H432.468V48.5509H436.512V46.4211Z" fill="#A0AEC0"></path><path d="M450.978 46.4209L452.493 48.5504H456.911L455.39 46.4209H450.978Z" fill="#A0AEC0"></path><path d="M500.859 46.4211H496.844C496.884 46.6925 496.906 46.9661 496.91 47.2403C496.908 47.6812 496.858 48.1206 496.763 48.5512H500.778C500.858 48.0452 500.899 47.5338 500.901 47.0215C500.901 46.8119 500.869 46.6245 500.859 46.4211Z" fill="#A0AEC0"></path><path d="M258.508 48.5515H254.464V57.122H258.508V48.5515Z" fill="#A0AEC0"></path><path d="M286.44 48.5515H282.45V57.122H286.44V48.5515Z" fill="#A0AEC0"></path><path d="M282.451 30.7627V35.9369H258.507V30.7627H254.462V46.4209H258.507V39.487H282.451V46.4209H286.44V30.7627H282.451Z" fill="#A0AEC0"></path><path d="M260.054 18.9023H256.009V28.6328H260.054V18.9023Z" fill="#A0AEC0"></path><path d="M287.984 18.9023H283.994V28.6328H287.984V18.9023Z" fill="#A0AEC0"></path><path d="M355.816 24.2525C358.34 22.8567 361.184 22.1413 364.069 22.1767C366.166 22.1138 368.253 22.484 370.2 23.264C372.147 24.0439 373.911 25.217 375.383 26.7096L377.953 24.1425C376.257 22.3098 374.163 20.8905 371.831 19.9939C369.321 19.028 366.65 18.5462 363.961 18.5739C360.377 18.5235 356.839 19.388 353.683 21.0855C350.688 22.696 348.2 25.106 346.497 28.0467C346.386 28.2359 346.31 28.4393 346.207 28.6322H350.872C352.179 26.8284 353.867 25.3332 355.816 24.2525Z" fill="#A0AEC0"></path><path d="M346.344 38.0127C346.324 35.4961 346.905 33.0109 348.037 30.7627H343.673C342.788 33.0769 342.34 35.5353 342.354 38.0127C342.334 40.9157 342.958 43.7872 344.18 46.4212H348.671C348.601 46.3081 348.517 46.2085 348.449 46.093C347.032 43.6381 346.304 40.8464 346.344 38.0127V38.0127Z" fill="#A0AEC0"></path><path d="M352.111 54.9375C355.256 56.6369 358.785 57.5017 362.36 57.4491C365.061 57.4748 367.742 56.9831 370.258 56.0007C372.598 55.0923 374.701 53.6638 376.407 51.8235L373.837 49.2576C372.377 50.77 370.616 51.9595 368.667 52.7495C366.718 53.5394 364.625 53.9121 362.523 53.8435C359.638 53.8794 356.794 53.1645 354.27 51.7692C352.766 50.927 351.416 49.8384 350.274 48.5488H345.337C347.009 51.224 349.342 53.4241 352.111 54.9375Z" fill="#A0AEC0"></path><path d="M393.187 48.5515H389.142V57.122H393.187V48.5515Z" fill="#A0AEC0"></path><path d="M421.842 18.9028H417.196L407.734 28.6318H412.531L421.842 18.9028Z" fill="#A0AEC0"></path><path d="M408.95 30.7627H404.115L393.188 41.9986V30.7627H389.143V46.4209H393.833L401.002 39.1604L407.324 46.4209H412.383L403.736 36.2112L408.95 30.7627Z" fill="#A0AEC0"></path><path d="M394.732 18.9023H390.688V28.6328H394.732V18.9023Z" fill="#A0AEC0"></path><path d="M416.637 57.1191H421.447L414.187 48.5488H409.177L416.637 57.1191Z" fill="#A0AEC0"></path><path d="M458.23 57.1191H462.657L456.546 48.5488H452.128L458.23 57.1191Z" fill="#A0AEC0"></path><path d="M437.694 22.3964H447.861C450.959 22.1877 454.033 23.0665 456.551 24.8809C457.738 25.8595 458.612 27.1636 459.066 28.6325H463.226C462.697 26.1916 461.368 23.9969 459.449 22.3964C456.163 19.8998 452.091 18.6602 447.97 18.902H433.65V28.6325H437.694V22.3964Z" fill="#A0AEC0"></path><path d="M459.789 39.5699C461.348 37.3625 462.144 34.7081 462.058 32.0083C462.058 31.5821 462.034 31.171 462.004 30.7639H457.95C457.989 31.1646 458.012 31.5787 458.012 32.0083C458.084 33.3339 457.85 34.6582 457.328 35.8792C456.807 37.1002 456.012 38.1854 455.004 39.0513C452.494 40.8838 449.417 41.7731 446.315 41.5628H436.148V30.7627H432.103V46.4212H436.148V45.0014H446.423C447.446 45.0035 448.468 44.9487 449.484 44.8372L450.611 46.4212H455.023L453.309 44.0174C455.89 43.2651 458.161 41.7064 459.789 39.5699V39.5699Z" fill="#A0AEC0"></path><path d="M436.149 48.5515H432.104V57.122H436.149V48.5515Z" fill="#A0AEC0"></path><path d="M481.065 23.9528C483.313 22.5074 485.969 21.8278 488.635 22.0156C490.449 22.0252 492.253 22.2916 493.993 22.807C495.815 23.3346 497.547 24.1346 499.13 25.1799L500.497 21.9602C498.832 20.8415 496.994 20.0023 495.058 19.4757C492.97 18.8755 490.808 18.5721 488.635 18.5743C485.941 18.4914 483.26 18.9752 480.765 19.9943C478.859 20.7702 477.224 22.0899 476.064 23.7885C475.133 25.2369 474.614 26.9112 474.562 28.6318H478.558C478.589 27.7121 478.831 26.8118 479.266 26.0005C479.701 25.1892 480.316 24.4886 481.065 23.9528Z" fill="#A0AEC0"></path><path d="M474.819 34.6814C476.016 36.0484 477.526 37.1069 479.22 37.7671C481.47 38.6067 483.77 39.3084 486.106 39.8685C488.01 40.3065 489.889 40.8444 491.736 41.48C493.013 41.9277 494.178 42.6443 495.153 43.5814C495.911 44.3458 496.38 45.3496 496.48 46.4212H500.496C500.496 44.6204 499.873 42.8751 498.734 41.48C497.537 40.1187 496.027 39.0689 494.333 38.4214C492.109 37.5987 489.837 36.915 487.528 36.3742C485.159 35.7923 483.274 35.2557 481.872 34.7643C480.559 34.3286 479.363 33.6002 478.374 32.6342C477.856 32.11 477.474 31.4676 477.26 30.7627H473.109C473.279 32.2089 473.874 33.5723 474.819 34.6814V34.6814Z" fill="#A0AEC0"></path><path d="M493.978 52.1248C491.668 53.5401 488.973 54.1989 486.27 54.0089C483.844 54.0115 481.437 53.5769 479.165 52.726C477.105 52.016 475.222 50.8702 473.645 49.367L472.059 52.4795C473.758 54.1413 475.828 55.3762 478.098 56.0823C480.725 56.9965 483.489 57.4583 486.27 57.4481C488.98 57.5257 491.676 57.0517 494.196 56.0552C496.128 55.3 497.793 53.989 498.978 52.2881C499.722 51.1602 500.212 49.8845 500.413 48.5491H496.398C496.073 50.004 495.208 51.2818 493.978 52.1248V52.1248Z" fill="#A0AEC0"></path><path d="M286.44 28.6321H282.45V30.7618H286.44V28.6321Z" fill="#A0AEC0"></path><path d="M258.508 28.6321H254.464V30.7618H258.508V28.6321Z" fill="#A0AEC0"></path><path d="M346.492 30.7625C346.631 30.4851 346.747 30.2001 346.904 29.9304C347.175 29.483 347.467 29.0497 347.782 28.6321H343.116C342.743 29.3206 342.413 30.032 342.129 30.7619L346.492 30.7625Z" fill="#A0AEC0"></path><path d="M407.403 30.7615L409.442 28.6321H404.642L402.569 30.7615H407.403Z" fill="#A0AEC0"></path><path d="M391.641 28.6321H387.596V30.7618H391.641V28.6321Z" fill="#A0AEC0"></path><path d="M456.405 30.7618H460.458C460.405 30.0448 460.297 29.3328 460.135 28.6321H455.975C456.194 29.3246 456.338 30.0386 456.405 30.7618V30.7618Z" fill="#A0AEC0"></path><path d="M434.603 28.6321H430.559V30.7618H434.603V28.6321Z" fill="#A0AEC0"></path><path d="M471.562 30.7618H475.713C475.526 30.1754 475.431 29.5633 475.433 28.9476C475.433 28.8373 475.464 28.7399 475.467 28.6321H471.471C471.466 28.7754 471.443 28.9125 471.443 29.0577C471.441 29.6279 471.481 30.1974 471.562 30.7618Z" fill="#A0AEC0"></path><path d="M260.054 46.4211H256.009V48.5509H260.054V46.4211Z" fill="#A0AEC0"></path><path d="M287.984 46.4211H283.994V48.5509H287.984V46.4211Z" fill="#A0AEC0"></path><path d="M345.726 46.4211C345.97 46.945 346.204 47.4735 346.497 47.9774C346.615 48.1796 346.761 48.3549 346.885 48.5512H351.821C351.224 47.8897 350.688 47.1769 350.217 46.4211H345.726Z" fill="#A0AEC0"></path><path d="M395.378 46.4209H390.689V48.5504H394.733V47.0773L395.378 46.4209Z" fill="#A0AEC0"></path><path d="M408.868 46.4209L410.723 48.5504H415.733L413.928 46.4209H408.868Z" fill="#A0AEC0"></path><path d="M437.695 46.4211H433.65V48.5509H437.695V46.4211Z" fill="#A0AEC0"></path><path d="M452.159 46.4209L453.674 48.5504H458.092L456.571 46.4209H452.159Z" fill="#A0AEC0"></path><path d="M502.041 46.4211H498.026C498.065 46.6925 498.087 46.9661 498.091 47.2403C498.089 47.6812 498.04 48.1207 497.945 48.5512H501.959C502.039 48.0452 502.081 47.5338 502.083 47.0215C502.082 46.8119 502.051 46.6245 502.041 46.4211Z" fill="#A0AEC0"></path><path d="M317.337 57.9178L323.424 55.1966L322.823 53.665H315.681L317.337 57.9178Z" fill="#A0AEC0"></path><path d="M316.01 28.4097H304.817L304.228 39.4422H327.252L316.01 28.4097Z" fill="#A0AEC0"></path><path d="M306.598 17.9756L306.07 27.834H316.649L306.598 17.9756Z" fill="#A0AEC0"></path><path d="M313.666 48.4905L315.458 53.0884H322.6L319.876 46.0745L334.86 46.9096L328.798 40.9619H304.154L303.503 53.0884H309.174L313.666 48.4905Z" fill="#A0AEC0"></path><path d="M303.479 53.665L303.185 59.206L308.609 53.665H303.479Z" fill="#A0AEC0"></path><path d="M312.965 27.8345H302.386L302.361 28.4108H313.554L312.965 27.8345Z" fill="#A0AEC0"></path><path d="M307.946 53.0876H302.276L302.251 53.6639H307.382L307.946 53.0876Z" fill="#A0AEC0"></path><path d="M314.452 53.6639H321.594L321.372 53.0876H314.23L314.452 53.6639Z" fill="#A0AEC0"></path><path d="M329.708 39.4424H306.684L306.61 40.9617H331.253L329.708 39.4424Z" fill="#A0AEC0"></path><path d="M314.881 57.9178L320.968 55.1966L320.366 53.665H313.224L314.881 57.9178Z" fill="#A0AEC0"></path><path d="M313.554 28.4097H302.362L301.772 39.4422H324.797L313.554 28.4097Z" fill="#A0AEC0"></path><path d="M304.142 17.9756L303.615 27.834H314.193L304.142 17.9756Z" fill="#A0AEC0"></path><path d="M311.213 48.4905L313.002 53.0884H320.148L317.423 46.0745L332.408 46.9096L326.346 40.9619H301.699L301.051 53.0884H306.721L311.213 48.4905Z" fill="#A0AEC0"></path><path d="M301.026 53.665L300.73 59.206L306.157 53.665H301.026Z" fill="#A0AEC0"></path><path d="M310.512 27.8345H299.934L299.909 28.4108H311.102L310.512 27.8345Z" fill="#A0AEC0"></path><path d="M305.493 53.0876H299.822L299.798 53.6639H304.928L305.493 53.0876Z" fill="#A0AEC0"></path><path d="M311.997 53.6639H319.139L318.92 53.0876H311.778L311.997 53.6639Z" fill="#A0AEC0"></path><path d="M327.252 39.4424H304.228L304.154 40.9617H328.798L327.252 39.4424Z" fill="#A0AEC0"></path><path d="M316.109 57.9178L322.196 55.1966L321.594 53.665H314.452L316.109 57.9178Z" fill="#A0AEC0"></path><path d="M314.782 28.4097H303.589L303 39.4422H326.024L314.782 28.4097Z" fill="#A0AEC0"></path><path d="M305.37 17.9756L304.842 27.834H315.421L305.37 17.9756Z" fill="#A0AEC0"></path><path d="M312.438 48.4905L314.23 53.0884H321.372L318.648 46.0745L333.636 46.9096L327.57 40.9619H302.926L302.276 53.0884H307.946L312.438 48.4905Z" fill="#A0AEC0"></path><path d="M302.251 53.665L301.958 59.206L307.381 53.665H302.251Z" fill="#A0AEC0"></path><path d="M311.74 27.8345H301.158L301.134 28.4108H312.33L311.74 27.8345Z" fill="#A0AEC0"></path><path d="M306.722 53.0876H301.051L301.026 53.6639H306.157L306.722 53.0876Z" fill="#A0AEC0"></path><path d="M313.225 53.6639H320.367L320.148 53.0876H313.002L313.225 53.6639Z" fill="#A0AEC0"></path><path d="M328.48 39.4424H305.456L305.382 40.9617H330.026L328.48 39.4424Z" fill="#A0AEC0"></path><path d="M509.322 77.1829H10.8266C7.95602 77.1797 5.204 76.0391 3.17431 74.0115C1.14461 71.9838 0.00302123 69.2347 0 66.3674V10.8146C0.00310317 7.94737 1.14475 5.19842 3.17445 3.17096C5.20415 1.14349 7.95613 0.00309975 10.8266 0H509.322C512.193 0.00318131 514.945 1.14361 516.974 3.17107C519.004 5.19852 520.146 7.94742 520.149 10.8146V66.3674C520.146 69.2347 519.004 71.9836 516.974 74.0113C514.945 76.0389 512.193 77.1795 509.322 77.1829V77.1829ZM10.8266 3.08726C8.7755 3.08929 6.80903 3.90408 5.35871 5.35281C3.90839 6.80153 3.0927 8.76584 3.09066 10.8146V66.3674C3.09245 68.4163 3.90803 70.3809 5.35838 71.8298C6.80873 73.2787 8.77534 74.0936 10.8266 74.0957H509.322C511.374 74.0935 513.34 73.2786 514.79 71.8297C516.241 70.3808 517.056 68.4163 517.058 66.3674V10.8146C517.056 8.76589 516.24 6.80163 514.79 5.35291C513.34 3.9042 511.373 3.08938 509.322 3.08726H10.8266Z" fill="#A0AEC0"></path></svg>