<svg viewBox="0 0 386 98" focusable="false" xmlns="http://www.w3.org/2000/svg"><path d="M129.775 67V30.85H136.175L147.075 60.7L158.125 30.85H164.5V67H159.725V37.775L149.25 67H144.925L134.525 38.05V67H129.775ZM180.116 67.5C178.449 67.5 176.974 67.2083 175.691 66.625C174.407 66.025 173.399 65.1667 172.666 64.05C171.949 62.9333 171.591 61.5833 171.591 60C171.591 57.1333 172.591 55 174.591 53.6C176.591 52.2 179.799 51.45 184.216 51.35L188.841 51.225V49.2C188.841 47.6167 188.366 46.3667 187.416 45.45C186.466 44.5167 184.991 44.05 182.991 44.05C181.507 44.0667 180.199 44.4167 179.066 45.1C177.949 45.7833 177.224 46.9 176.891 48.45H172.816C172.916 46.7667 173.391 45.35 174.241 44.2C175.091 43.0333 176.274 42.15 177.791 41.55C179.324 40.95 181.132 40.65 183.216 40.65C185.466 40.65 187.332 40.9667 188.816 41.6C190.316 42.2333 191.432 43.1667 192.166 44.4C192.916 45.6333 193.291 47.15 193.291 48.95V67H189.341L189.016 62.15C188.016 64.1667 186.741 65.5667 185.191 66.35C183.657 67.1167 181.966 67.5 180.116 67.5ZM181.516 64.175C182.382 64.175 183.241 64.0167 184.091 63.7C184.957 63.3833 185.749 62.9583 186.466 62.425C187.182 61.875 187.749 61.2667 188.166 60.6C188.599 59.9167 188.824 59.2167 188.841 58.5V54.075L184.991 54.15C183.024 54.1833 181.374 54.3833 180.041 54.75C178.724 55.1167 177.732 55.6917 177.066 56.475C176.416 57.2583 176.091 58.2833 176.091 59.55C176.091 61 176.591 62.1333 177.591 62.95C178.607 63.7667 179.916 64.175 181.516 64.175ZM223.888 67H218.988L210.888 54.025L205.788 59.3V67H201.188V29.85H205.788V54.075L217.938 41.15H223.238L213.913 51L223.888 67ZM231.539 55.15C231.539 56.7833 231.806 58.2667 232.339 59.6C232.889 60.9167 233.714 61.9667 234.814 62.75C235.931 63.5333 237.322 63.925 238.989 63.925C240.639 63.925 242.056 63.5417 243.239 62.775C244.439 62.0083 245.206 60.9 245.539 59.45H249.914C249.597 61.2 248.897 62.675 247.814 63.875C246.731 65.075 245.422 65.9833 243.889 66.6C242.356 67.2 240.756 67.5 239.089 67.5C236.672 67.5 234.547 66.975 232.714 65.925C230.881 64.875 229.447 63.3667 228.414 61.4C227.381 59.4333 226.864 57.075 226.864 54.325C226.864 51.6083 227.331 49.225 228.264 47.175C229.197 45.125 230.547 43.525 232.314 42.375C234.097 41.225 236.239 40.65 238.739 40.65C241.172 40.65 243.231 41.175 244.914 42.225C246.597 43.275 247.872 44.7583 248.739 46.675C249.622 48.575 250.064 50.8333 250.064 53.45V55.15H231.539ZM231.564 52.025H245.614C245.614 50.5417 245.364 49.2083 244.864 48.025C244.364 46.825 243.597 45.8833 242.564 45.2C241.547 44.5 240.264 44.15 238.714 44.15C237.097 44.15 235.756 44.5417 234.689 45.325C233.639 46.0917 232.847 47.0833 232.314 48.3C231.797 49.5 231.547 50.7417 231.564 52.025ZM256.413 67V41.15H260.813V46.125C261.246 44.8917 261.855 43.875 262.638 43.075C263.421 42.2583 264.313 41.65 265.313 41.25C266.33 40.85 267.38 40.65 268.463 40.65C268.846 40.65 269.221 40.675 269.588 40.725C269.955 40.775 270.238 40.8583 270.438 40.975V45.45C270.188 45.3333 269.863 45.2583 269.463 45.225C269.08 45.175 268.755 45.15 268.488 45.15C267.455 45.0833 266.488 45.15 265.588 45.35C264.688 45.5333 263.896 45.8583 263.213 46.325C262.53 46.7917 261.988 47.4083 261.588 48.175C261.205 48.925 261.013 49.8417 261.013 50.925V67H256.413ZM276.773 30.85H281.498V62.85H298.573V67H276.748L276.773 30.85ZM307.32 55.15C307.32 56.7833 307.587 58.2667 308.12 59.6C308.67 60.9167 309.495 61.9667 310.595 62.75C311.712 63.5333 313.104 63.925 314.77 63.925C316.42 63.925 317.837 63.5417 319.02 62.775C320.22 62.0083 320.987 60.9 321.32 59.45H325.695C325.379 61.2 324.679 62.675 323.595 63.875C322.512 65.075 321.204 65.9833 319.67 66.6C318.137 67.2 316.537 67.5 314.87 67.5C312.454 67.5 310.329 66.975 308.495 65.925C306.662 64.875 305.229 63.3667 304.195 61.4C303.162 59.4333 302.645 57.075 302.645 54.325C302.645 51.6083 303.112 49.225 304.045 47.175C304.979 45.125 306.329 43.525 308.095 42.375C309.879 41.225 312.02 40.65 314.52 40.65C316.954 40.65 319.012 41.175 320.695 42.225C322.379 43.275 323.654 44.7583 324.52 46.675C325.404 48.575 325.845 50.8333 325.845 53.45V55.15H307.32ZM307.345 52.025H321.395C321.395 50.5417 321.145 49.2083 320.645 48.025C320.145 46.825 319.379 45.8833 318.345 45.2C317.329 44.5 316.045 44.15 314.495 44.15C312.879 44.15 311.537 44.5417 310.47 45.325C309.42 46.0917 308.629 47.0833 308.095 48.3C307.579 49.5 307.329 50.7417 307.345 52.025ZM339.051 67.5C337.385 67.5 335.91 67.2083 334.626 66.625C333.343 66.025 332.335 65.1667 331.601 64.05C330.885 62.9333 330.526 61.5833 330.526 60C330.526 57.1333 331.526 55 333.526 53.6C335.526 52.2 338.735 51.45 343.151 51.35L347.776 51.225V49.2C347.776 47.6167 347.301 46.3667 346.351 45.45C345.401 44.5167 343.926 44.05 341.926 44.05C340.443 44.0667 339.135 44.4167 338.001 45.1C336.885 45.7833 336.16 46.9 335.826 48.45H331.751C331.851 46.7667 332.326 45.35 333.176 44.2C334.026 43.0333 335.21 42.15 336.726 41.55C338.26 40.95 340.068 40.65 342.151 40.65C344.401 40.65 346.268 40.9667 347.751 41.6C349.251 42.2333 350.368 43.1667 351.101 44.4C351.851 45.6333 352.226 47.15 352.226 48.95V67H348.276L347.951 62.15C346.951 64.1667 345.676 65.5667 344.126 66.35C342.593 67.1167 340.901 67.5 339.051 67.5ZM340.451 64.175C341.318 64.175 342.176 64.0167 343.026 63.7C343.893 63.3833 344.685 62.9583 345.401 62.425C346.118 61.875 346.685 61.2667 347.101 60.6C347.535 59.9167 347.76 59.2167 347.776 58.5V54.075L343.926 54.15C341.96 54.1833 340.31 54.3833 338.976 54.75C337.66 55.1167 336.668 55.6917 336.001 56.475C335.351 57.2583 335.026 58.2833 335.026 59.55C335.026 61 335.526 62.1333 336.526 62.95C337.543 63.7667 338.851 64.175 340.451 64.175ZM369.449 67.5C366.099 67.5 363.44 66.35 361.474 64.05C359.507 61.75 358.524 58.3917 358.524 53.975C358.524 51.2917 358.915 48.95 359.699 46.95C360.499 44.95 361.682 43.4 363.249 42.3C364.815 41.2 366.765 40.65 369.099 40.65C370.332 40.65 371.424 40.8083 372.374 41.125C373.34 41.4417 374.174 41.8417 374.874 42.325C375.574 42.8083 376.14 43.3083 376.574 43.825C377.024 44.3417 377.357 44.8167 377.574 45.25V29.85H382.224V67H378.699L378.199 61.7C378.032 62.2 377.765 62.7833 377.399 63.45C377.032 64.1 376.515 64.7417 375.849 65.375C375.182 65.9917 374.324 66.5 373.274 66.9C372.24 67.3 370.965 67.5 369.449 67.5ZM370.274 63.95C372.89 63.95 374.757 63.1583 375.874 61.575C377.007 59.975 377.574 57.3667 377.574 53.75C377.557 51.7333 377.299 50.0167 376.799 48.6C376.315 47.1833 375.549 46.1083 374.499 45.375C373.465 44.625 372.09 44.25 370.374 44.25C368.24 44.25 366.507 45.0083 365.174 46.525C363.84 48.0417 363.174 50.45 363.174 53.75C363.174 56.9833 363.774 59.4917 364.974 61.275C366.19 63.0583 367.957 63.95 370.274 63.95Z" fill="#A0AEC0"></path><path fill-rule="evenodd" clip-rule="evenodd" d="M0 48.5008C0 87.1104 0.017885 97.0017 0.0875239 97.0017C0.221661 97.0017 3.62974 95.7705 14.47 91.8062C24.2495 88.2297 24.977 87.9499 63.02 73.1378C84.262 64.8672 103.099 57.5719 104.881 56.9261C106.662 56.2804 108.251 55.676 108.411 55.583C108.946 55.2719 108.91 55.8554 108.965 46.6673C109.017 37.9568 108.949 32.9823 108.749 30.871C108.471 27.9271 107.781 25.0349 106.699 22.2778C105.394 18.951 103.509 15.8285 100.931 12.7258C99.9815 11.5825 97.2628 8.85126 96.1847 7.95746C91.1678 3.79802 85.6646 1.31817 79.3911 0.390115C76.8925 0.0204433 79.8709 0.0470901 38.3577 0.0226286L0 0V48.5008ZM76.7858 6.15584C81.6557 6.79085 85.7399 8.28025 89.5182 10.7989C91.22 11.9333 92.3104 12.8231 93.8139 14.3043C98.5206 18.9412 101.397 24.7519 102.239 31.3214C102.369 32.3419 102.381 32.829 102.381 37.1846V41.9348L102.152 42.0077C101.355 42.2617 83.5794 47.7245 83.4245 47.7631L83.2331 47.8109L83.2092 37.3531L83.1854 26.8952L82.9992 25.9083C82.46 23.0511 81.4597 20.7927 79.9058 18.9245C78.6283 17.3886 77.0826 16.3694 75.2839 15.8769L74.603 15.6905L69.2692 15.6676L63.9354 15.6448V34.783V53.9212L63.3545 54.0974C63.035 54.1943 58.7494 55.4816 53.8311 56.958C48.9127 58.4344 44.8331 59.6598 44.7653 59.6811C44.6482 59.7179 44.6421 58.8975 44.6419 43.1312C44.6417 28.4271 44.6292 26.4707 44.5319 25.9083C43.8927 22.2134 42.1388 19.0843 39.6816 17.2547C38.9514 16.7111 37.7436 16.1234 36.8614 15.8826L36.1573 15.6905L30.8235 15.6676L25.4897 15.6448V42.5491C25.4897 64.0435 25.5073 69.4468 25.5777 69.42C25.6261 69.4016 29.4363 68.0039 34.0449 66.3139C38.6535 64.6239 42.9786 63.0364 43.6563 62.7861L44.8886 62.3311L44.9066 67.7313C44.9165 70.7013 44.9007 73.1534 44.8714 73.1802C44.8222 73.2252 6.59471 87.2533 6.31961 87.3273C6.20237 87.3588 6.19638 85.3887 6.19638 46.676V5.99159L41.0334 6.014C73.2802 6.0348 75.9386 6.04537 76.7858 6.15584Z" fill="#A0AEC0"></path></svg>