<svg viewBox="0 0 315 117" focusable="false" xmlns="http://www.w3.org/2000/svg"><path d="M56.9829 80.1453C34.8582 80.1453 16.877 62.179 16.877 40.0726C16.877 17.9663 34.8582 0 56.9829 0C79.1076 0 97.0889 17.9663 97.0889 40.0726C97.0889 62.179 79.1076 80.1453 56.9829 80.1453ZM56.9829 9.64712C40.2135 9.64712 26.5712 23.2781 26.5712 40.0336C26.5712 56.7891 40.2135 70.4201 56.9829 70.4201C73.7524 70.4201 87.3946 56.7891 87.3946 40.0336C87.3946 23.2781 73.7915 9.64712 56.9829 9.64712Z" fill="#A0AEC0"></path><path d="M2.84377 116.195C-0.947924 112.406 -0.947924 106.274 2.84377 102.486L53.5821 51.8286C57.3738 55.6172 57.3738 61.7491 53.5821 65.5377L2.84377 116.195Z" fill="#A0AEC0"></path><path d="M2.84377 80.145C-0.947924 76.3564 -0.947924 70.2244 2.84377 66.4359L35.9918 33.3154C39.7835 37.104 39.7835 43.2359 35.9918 47.0245L2.84377 80.145Z" fill="#A0AEC0"></path><path d="M41.6988 116.195C37.9071 112.407 37.9071 106.275 41.6988 102.486L56.201 87.9961C59.9927 91.7846 59.9927 97.9166 56.201 101.705L41.6988 116.195Z" fill="#A0AEC0"></path><path d="M140.127 35.0349C141.925 32.4571 142.785 29.4888 142.785 26.208C142.785 23.2006 142.042 20.4275 140.557 17.9278C139.071 15.4282 137.078 13.4363 134.576 11.9912C132.074 10.546 129.338 9.80396 126.367 9.80396H111.122C110.379 9.80396 109.871 9.88207 109.676 10.0774C109.441 10.2726 109.363 10.7023 109.363 11.4053V64.6793C109.363 65.6947 110.067 66.2025 111.474 66.2025L132.465 66.1244C135.475 66.1244 138.289 65.3823 140.83 63.8981C143.371 62.4139 145.365 60.422 146.811 57.9224C148.257 55.4227 149 52.6887 149 49.7204C149 46.713 148.218 43.9009 146.655 41.284C145.052 38.7063 142.863 36.5972 140.127 35.0349ZM118.745 21.3649C118.745 19.9198 119.331 19.1777 120.464 19.1777H126.367C128.243 19.1777 129.885 19.8807 131.292 21.2477C132.7 22.6147 133.403 24.2942 133.403 26.208C133.403 28.0827 132.739 29.7231 131.371 31.0901C130.002 32.4571 128.4 33.1601 126.523 33.1601H120.777C119.409 33.1601 118.745 32.4962 118.745 31.1292V21.3649V21.3649ZM136.569 54.7197C135.201 56.0867 133.56 56.7507 131.527 56.7507L120.738 56.8288C119.37 56.8288 118.705 56.1648 118.705 54.7978V44.682C118.705 43.315 119.37 42.651 120.738 42.651H131.527C133.52 42.651 135.201 43.315 136.569 44.682C137.938 46.049 138.602 47.6894 138.602 49.7204C138.602 51.7123 137.898 53.3527 136.569 54.7197Z" fill="#A0AEC0"></path><path d="M214.358 32.6131C214.319 32.3006 214.202 32.0272 214.084 31.7929C214.006 31.4804 213.967 31.168 213.889 30.8555C212.599 25.7781 210.136 21.3646 206.501 17.6151C205.875 16.9512 205.172 16.7168 204.312 16.9121C203.96 16.9902 203.569 17.2246 203.217 17.6151C202.944 17.8885 202.318 18.6306 201.341 19.7633C200.364 20.8959 199.66 21.6771 199.308 22.0286C198.8 22.6926 198.644 23.3956 198.839 24.0596C198.957 24.5673 199.23 25.0751 199.621 25.5437C201.576 27.77 202.944 30.3868 203.686 33.3552C204.234 35.4643 204.39 37.5734 204.195 39.7996C204.116 40.5417 203.999 41.3228 203.843 42.0649C203.686 42.768 203.452 43.471 203.217 44.174C202.475 46.205 201.419 48.0797 200.051 49.7982C198.644 51.5168 197.002 52.9228 195.048 54.0555C192.702 55.5006 190.161 56.3598 187.425 56.5551C185.783 56.7114 184.181 56.6332 182.578 56.3208C180.936 56.0083 179.334 55.5006 177.692 54.7585C175.229 53.5477 173.118 51.8683 171.398 49.7201C169.678 47.572 168.506 45.1895 167.841 42.5727C167.568 41.5181 167.411 40.4636 167.294 39.409C167.138 36.7531 167.45 34.2144 168.349 31.7538C169.874 27.5357 172.61 24.2549 176.558 21.8724C178.63 20.5444 180.936 19.7242 183.399 19.3727C185.862 19.0212 188.285 19.1774 190.67 19.7633C191.764 20.0367 192.507 19.6852 192.859 18.7478L195.243 12.1081C195.36 11.6394 195.321 11.2098 195.165 10.7801C195.009 10.3896 194.696 10.1162 194.305 9.95994L194.149 9.92089C190.357 8.78823 186.487 8.43671 182.539 8.9054C180.78 9.10068 179.06 9.49126 177.34 10.0381C177.301 10.0381 177.223 10.0381 177.184 10.0771L177.027 10.1162C173.275 11.2879 169.874 13.1626 166.825 15.7404C163.815 18.3182 161.391 21.4818 159.632 25.2703C158.147 28.3949 157.248 31.6367 156.974 34.9956C156.779 37.2218 156.857 39.409 157.131 41.5572C157.561 45.541 158.772 49.2905 160.805 52.8056C162.408 55.7349 164.48 58.2736 167.099 60.4608C169.718 62.609 172.61 64.2884 175.816 65.4211C176.363 65.6164 176.949 65.8117 177.496 65.9679C179.216 66.5147 181.014 66.9053 182.852 67.0615C186.213 67.413 189.575 67.1396 192.859 66.3194C197.041 65.2649 200.833 63.3511 204.234 60.6561C207.634 57.9221 210.214 54.6023 211.934 50.6575C213.42 47.5329 214.319 44.2912 214.632 40.8932C214.632 40.6979 214.671 40.5417 214.671 40.3464C214.905 37.8077 214.827 35.2299 214.358 32.6131Z" fill="#A0AEC0"></path><path d="M258.685 55.618H239.062C238.632 55.618 238.242 55.4617 237.929 55.1102C237.616 54.7587 237.46 54.3681 237.46 53.9385V11.249C237.46 10.8194 237.303 10.4288 236.991 10.0773C236.678 9.72581 236.248 9.56958 235.779 9.56958H227.414C226.984 9.56958 226.593 9.76487 226.241 10.0773C225.889 10.4288 225.733 10.8194 225.733 11.249V64.6011C225.733 65.0698 225.889 65.4994 226.241 65.8119C226.593 66.1244 226.984 66.2806 227.414 66.2806H258.685C259.155 66.2806 259.585 66.1244 259.897 65.8119C260.21 65.4994 260.366 65.0698 260.366 64.6011V57.2193C260.366 56.7897 260.21 56.3991 259.897 56.0867C259.585 55.7742 259.155 55.618 258.685 55.618Z" fill="#A0AEC0"></path><path d="M275.142 19.5677H312.746C313.176 19.5677 313.528 19.4115 313.841 19.099C314.154 18.7866 314.271 18.4351 314.271 18.0445V11.0923C314.271 10.7018 314.114 10.3893 313.841 10.0768C313.528 9.76439 313.176 9.64722 312.746 9.64722H275.142C274.751 9.64722 274.438 9.76439 274.126 10.0378C273.813 10.3112 273.696 10.6627 273.696 11.0923V18.0445C273.696 18.4741 273.852 18.8257 274.126 19.1381C274.399 19.4506 274.751 19.5677 275.142 19.5677Z" fill="#A0AEC0"></path><path d="M313.919 56.8285C313.645 56.5551 313.294 56.438 312.864 56.438H284.993C284.602 56.438 284.25 56.2817 283.937 55.9693C283.625 55.6568 283.468 55.3053 283.468 54.9147V46.0878C283.468 44.9552 284.094 44.3693 285.344 44.3693H306.023C306.414 44.3693 306.726 44.2521 307 44.0178C307.274 43.7835 307.391 43.471 307.391 43.0804V36.1283C307.391 35.7377 307.274 35.4252 307 35.1909C306.726 34.9565 306.414 34.8394 306.023 34.8394H285.618C284.211 34.8394 283.507 34.3316 283.507 33.3161V27.4185C283.507 26.9889 283.39 26.6374 283.116 26.364C282.843 26.0906 282.491 25.9734 282.061 25.9734H275.181C274.79 25.9734 274.478 26.0906 274.165 26.364C273.852 26.6374 273.735 26.9889 273.735 27.4185V64.8353C273.735 65.2258 273.891 65.5383 274.165 65.8507C274.478 66.1632 274.79 66.2804 275.181 66.2804H312.942C313.372 66.2804 313.724 66.1241 313.997 65.8507C314.271 65.5383 314.388 65.2258 314.388 64.8353V57.8831C314.349 57.4535 314.193 57.1019 313.919 56.8285Z" fill="#A0AEC0"></path><path d="M214.983 105.454H313.724C314.115 105.454 314.427 105.142 314.427 104.751V99.7519C314.427 99.3613 314.115 99.0488 313.724 99.0488H218.775C216.664 99.0488 214.983 100.728 214.983 102.837V105.454V105.454Z" fill="#A0AEC0"></path></svg>